<?xml version="1.0" encoding="UTF-8"?>
<svg id="_レイヤー_2" data-name="レイヤー 2" xmlns="http://www.w3.org/2000/svg" xmlns:xlink="http://www.w3.org/1999/xlink" viewBox="0 0 680.52 397.92">
  <defs>
    <style>
      .cls-1 {
        clip-path: url(#clippath-45);
      }

      .cls-2 {
        clip-path: url(#clippath-20);
      }

      .cls-3 {
        clip-path: url(#clippath-11);
      }

      .cls-4 {
        clip-path: url(#clippath-16);
      }

      .cls-5 {
        clip-path: url(#clippath-33);
      }

      .cls-6 {
        clip-path: url(#clippath-47);
      }

      .cls-7 {
        clip-path: url(#clippath-41);
      }

      .cls-8 {
        clip-path: url(#clippath-32);
      }

      .cls-9 {
        clip-path: url(#clippath-2);
      }

      .cls-10 {
        clip-path: url(#clippath-13);
      }

      .cls-11 {
        clip-path: url(#clippath-37);
      }

      .cls-12 {
        clip-path: url(#clippath-46);
      }

      .cls-13 {
        clip-path: url(#clippath-25);
      }

      .cls-14 {
        stroke: #bfbfbf;
        stroke-width: .75px;
      }

      .cls-14, .cls-15, .cls-16, .cls-17, .cls-18, .cls-19 {
        fill: none;
      }

      .cls-14, .cls-15, .cls-17, .cls-19 {
        stroke-linejoin: round;
      }

      .cls-20 {
        clip-path: url(#clippath-15);
      }

      .cls-21 {
        clip-path: url(#clippath-6);
      }

      .cls-15 {
        stroke: #207b8e;
      }

      .cls-15, .cls-19 {
        stroke-linecap: round;
      }

      .cls-22 {
        clip-path: url(#clippath-40);
      }

      .cls-23 {
        clip-path: url(#clippath-26);
      }

      .cls-16, .cls-18, .cls-24, .cls-25 {
        stroke-width: 0px;
      }

      .cls-26 {
        clip-path: url(#clippath-7);
      }

      .cls-27 {
        clip-path: url(#clippath-21);
      }

      .cls-28 {
        clip-path: url(#clippath-34);
      }

      .cls-17 {
        stroke: #d9d9d9;
      }

      .cls-29 {
        clip-path: url(#clippath-1);
      }

      .cls-30 {
        clip-path: url(#clippath-4);
      }

      .cls-31 {
        clip-path: url(#clippath-38);
      }

      .cls-18 {
        clip-rule: evenodd;
      }

      .cls-32 {
        clip-path: url(#clippath-36);
      }

      .cls-33 {
        clip-path: url(#clippath-27);
      }

      .cls-34 {
        clip-path: url(#clippath-44);
      }

      .cls-35 {
        clip-path: url(#clippath-12);
      }

      .cls-24 {
        fill: #fde1d7;
      }

      .cls-36 {
        clip-path: url(#clippath-24);
      }

      .cls-37 {
        clip-path: url(#clippath-30);
      }

      .cls-25 {
        fill: #595959;
      }

      .cls-38 {
        clip-path: url(#clippath-22);
      }

      .cls-39 {
        clip-path: url(#clippath-9);
      }

      .cls-40 {
        clip-path: url(#clippath);
      }

      .cls-41 {
        clip-path: url(#clippath-50);
      }

      .cls-42 {
        clip-path: url(#clippath-48);
      }

      .cls-43 {
        clip-path: url(#clippath-39);
      }

      .cls-44 {
        clip-path: url(#clippath-19);
      }

      .cls-45 {
        clip-path: url(#clippath-31);
      }

      .cls-46 {
        clip-path: url(#clippath-3);
      }

      .cls-47 {
        clip-path: url(#clippath-43);
      }

      .cls-48 {
        clip-path: url(#clippath-8);
      }

      .cls-19 {
        stroke: #f66838;
        stroke-width: 2.25px;
      }

      .cls-49 {
        clip-path: url(#clippath-29);
      }

      .cls-50 {
        clip-path: url(#clippath-18);
      }

      .cls-51 {
        clip-path: url(#clippath-14);
      }

      .cls-52 {
        clip-path: url(#clippath-17);
      }

      .cls-53 {
        clip-path: url(#clippath-5);
      }

      .cls-54 {
        clip-path: url(#clippath-42);
      }

      .cls-55 {
        clip-path: url(#clippath-10);
      }

      .cls-56 {
        clip-path: url(#clippath-23);
      }

      .cls-57 {
        clip-path: url(#clippath-49);
      }

      .cls-58 {
        clip-path: url(#clippath-28);
      }

      .cls-59 {
        clip-path: url(#clippath-35);
      }
    </style>
    <clipPath id="clippath">
      <polygon class="cls-18" points="46.92 366.24 665.76 366.24 665.76 19.8 46.92 19.8 46.92 366.24 46.92 366.24"/>
    </clipPath>
    <clipPath id="clippath-1">
      <polygon class="cls-18" points="0 397.92 680.52 397.92 680.52 0 0 0 0 397.92 0 397.92"/>
    </clipPath>
    <clipPath id="clippath-2">
      <polygon class="cls-18" points="0 397.92 680.52 397.92 680.52 0 0 0 0 397.92 0 397.92"/>
    </clipPath>
    <clipPath id="clippath-3">
      <polygon class="cls-18" points="0 397.92 680.52 397.92 680.52 0 0 0 0 397.92 0 397.92"/>
    </clipPath>
    <clipPath id="clippath-4">
      <polygon class="cls-18" points="0 397.92 680.52 397.92 680.52 0 0 0 0 397.92 0 397.92"/>
    </clipPath>
    <clipPath id="clippath-5">
      <polygon class="cls-18" points="46.92 366.24 665.76 366.24 665.76 19.8 46.92 19.8 46.92 366.24 46.92 366.24"/>
    </clipPath>
    <clipPath id="clippath-6">
      <polygon class="cls-18" points="46.92 366.24 665.76 366.24 665.76 19.8 46.92 19.8 46.92 366.24 46.92 366.24"/>
    </clipPath>
    <clipPath id="clippath-7">
      <polygon class="cls-18" points="0 397.92 680.52 397.92 680.52 0 0 0 0 397.92 0 397.92"/>
    </clipPath>
    <clipPath id="clippath-8">
      <rect class="cls-16" width="680.52" height="397.92"/>
    </clipPath>
    <clipPath id="clippath-9">
      <polygon class="cls-18" points="0 397.92 680.52 397.92 680.52 0 0 0 0 397.92 0 397.92"/>
    </clipPath>
    <clipPath id="clippath-10">
      <rect class="cls-16" width="680.52" height="397.92"/>
    </clipPath>
    <clipPath id="clippath-11">
      <polygon class="cls-18" points="0 397.92 680.52 397.92 680.52 0 0 0 0 397.92 0 397.92"/>
    </clipPath>
    <clipPath id="clippath-12">
      <rect class="cls-16" width="680.52" height="397.92"/>
    </clipPath>
    <clipPath id="clippath-13">
      <polygon class="cls-18" points="0 397.92 680.52 397.92 680.52 0 0 0 0 397.92 0 397.92"/>
    </clipPath>
    <clipPath id="clippath-14">
      <rect class="cls-16" width="680.52" height="397.92"/>
    </clipPath>
    <clipPath id="clippath-15">
      <polygon class="cls-18" points="0 397.92 680.52 397.92 680.52 0 0 0 0 397.92 0 397.92"/>
    </clipPath>
    <clipPath id="clippath-16">
      <rect class="cls-16" width="680.52" height="397.92"/>
    </clipPath>
    <clipPath id="clippath-17">
      <polygon class="cls-18" points="0 397.92 680.52 397.92 680.52 0 0 0 0 397.92 0 397.92"/>
    </clipPath>
    <clipPath id="clippath-18">
      <rect class="cls-16" width="680.52" height="397.92"/>
    </clipPath>
    <clipPath id="clippath-19">
      <polygon class="cls-18" points="0 397.92 680.52 397.92 680.52 0 0 0 0 397.92 0 397.92"/>
    </clipPath>
    <clipPath id="clippath-20">
      <rect class="cls-16" width="680.52" height="397.92"/>
    </clipPath>
    <clipPath id="clippath-21">
      <polygon class="cls-18" points="0 397.92 680.52 397.92 680.52 0 0 0 0 397.92 0 397.92"/>
    </clipPath>
    <clipPath id="clippath-22">
      <rect class="cls-16" width="680.52" height="397.92"/>
    </clipPath>
    <clipPath id="clippath-23">
      <polygon class="cls-18" points="0 397.92 680.52 397.92 680.52 0 0 0 0 397.92 0 397.92"/>
    </clipPath>
    <clipPath id="clippath-24">
      <rect class="cls-16" width="680.52" height="397.92"/>
    </clipPath>
    <clipPath id="clippath-25">
      <polygon class="cls-18" points="0 397.92 680.52 397.92 680.52 0 0 0 0 397.92 0 397.92"/>
    </clipPath>
    <clipPath id="clippath-26">
      <rect class="cls-16" width="680.52" height="397.92"/>
    </clipPath>
    <clipPath id="clippath-27">
      <polygon class="cls-18" points="0 397.92 680.52 397.92 680.52 0 0 0 0 397.92 0 397.92"/>
    </clipPath>
    <clipPath id="clippath-28">
      <rect class="cls-16" width="680.52" height="397.92"/>
    </clipPath>
    <clipPath id="clippath-29">
      <polygon class="cls-18" points="0 397.92 680.52 397.92 680.52 0 0 0 0 397.92 0 397.92"/>
    </clipPath>
    <clipPath id="clippath-30">
      <rect class="cls-16" width="680.52" height="397.92"/>
    </clipPath>
    <clipPath id="clippath-31">
      <polygon class="cls-18" points="0 397.92 680.52 397.92 680.52 0 0 0 0 397.92 0 397.92"/>
    </clipPath>
    <clipPath id="clippath-32">
      <rect class="cls-16" width="680.52" height="397.92"/>
    </clipPath>
    <clipPath id="clippath-33">
      <polygon class="cls-18" points="0 397.92 680.52 397.92 680.52 0 0 0 0 397.92 0 397.92"/>
    </clipPath>
    <clipPath id="clippath-34">
      <rect class="cls-16" width="680.52" height="397.92"/>
    </clipPath>
    <clipPath id="clippath-35">
      <polygon class="cls-18" points="0 397.92 680.52 397.92 680.52 0 0 0 0 397.92 0 397.92"/>
    </clipPath>
    <clipPath id="clippath-36">
      <rect class="cls-16" width="680.52" height="397.92"/>
    </clipPath>
    <clipPath id="clippath-37">
      <polygon class="cls-18" points="0 397.92 680.52 397.92 680.52 0 0 0 0 397.92 0 397.92"/>
    </clipPath>
    <clipPath id="clippath-38">
      <rect class="cls-16" width="680.52" height="397.92"/>
    </clipPath>
    <clipPath id="clippath-39">
      <polygon class="cls-18" points="0 397.92 680.52 397.92 680.52 0 0 0 0 397.92 0 397.92"/>
    </clipPath>
    <clipPath id="clippath-40">
      <rect class="cls-16" width="680.52" height="397.92"/>
    </clipPath>
    <clipPath id="clippath-41">
      <polygon class="cls-18" points="0 397.92 680.52 397.92 680.52 0 0 0 0 397.92 0 397.92"/>
    </clipPath>
    <clipPath id="clippath-42">
      <polygon class="cls-18" points="0 397.92 680.52 397.92 680.52 0 0 0 0 397.92 0 397.92"/>
    </clipPath>
    <clipPath id="clippath-43">
      <rect class="cls-16" width="680.52" height="397.92"/>
    </clipPath>
    <clipPath id="clippath-44">
      <polygon class="cls-18" points="0 397.92 680.52 397.92 680.52 0 0 0 0 397.92 0 397.92"/>
    </clipPath>
    <clipPath id="clippath-45">
      <rect class="cls-16" width="680.52" height="397.92"/>
    </clipPath>
    <clipPath id="clippath-46">
      <polygon class="cls-18" points="0 397.92 680.52 397.92 680.52 0 0 0 0 397.92 0 397.92"/>
    </clipPath>
    <clipPath id="clippath-47">
      <polygon class="cls-18" points="0 397.92 680.52 397.92 680.52 0 0 0 0 397.92 0 397.92"/>
    </clipPath>
    <clipPath id="clippath-48">
      <rect class="cls-16" width="680.52" height="397.92"/>
    </clipPath>
    <clipPath id="clippath-49">
      <polygon class="cls-18" points="0 397.92 680.52 397.92 680.52 0 0 0 0 397.92 0 397.92"/>
    </clipPath>
    <clipPath id="clippath-50">
      <rect class="cls-16" width="680.52" height="397.92"/>
    </clipPath>
  </defs>
  <g id="drawdown_ol">
    <g>
      <g class="cls-40">
        <polygon class="cls-24" points="48.24 19.8 50.76 19.8 53.28 19.8 55.68 19.8 58.2 19.8 60.72 19.8 63.12 19.8 65.64 19.8 68.16 19.8 70.56 19.8 73.08 19.8 75.6 19.8 78.12 19.8 80.52 19.8 83.04 19.8 85.56 19.8 87.96 19.8 90.48 19.8 93 19.8 95.4 19.8 97.92 19.8 100.44 19.8 102.84 19.8 105.36 19.8 107.88 19.8 110.28 19.8 112.8 19.8 115.32 19.8 117.72 19.8 120.24 19.8 122.76 19.8 125.28 19.8 127.68 19.8 130.2 19.8 132.72 19.8 135.12 19.8 137.64 19.8 140.16 19.8 142.56 19.8 145.08 19.8 147.6 19.8 150 19.8 152.52 19.8 155.04 19.8 157.44 19.8 159.96 19.8 162.48 19.8 164.88 19.8 167.4 19.8 169.92 19.8 172.32 19.8 174.84 19.8 177.36 19.8 179.88 19.8 182.28 19.8 184.8 19.8 187.32 19.8 189.72 19.8 192.24 19.8 194.76 19.8 197.16 19.8 199.68 19.8 202.2 19.8 204.6 19.8 207.12 19.8 209.64 19.8 212.04 19.8 214.56 19.8 217.08 19.8 219.48 19.8 222 19.8 224.52 19.8 227.04 19.8 229.44 19.8 231.96 19.8 234.48 19.8 236.88 19.8 239.4 19.8 241.92 19.8 244.32 19.8 246.84 19.8 249.36 19.8 251.76 19.8 254.28 19.8 256.8 19.8 259.2 19.8 261.72 19.8 264.24 19.8 266.64 19.8 269.16 19.8 271.68 19.8 274.2 19.8 276.6 19.8 279.12 19.8 281.64 19.8 284.04 19.8 286.56 19.8 289.08 19.8 291.48 19.8 294 19.8 296.52 19.8 298.92 19.8 301.44 19.8 303.96 19.8 306.36 19.8 308.88 19.8 311.4 19.8 313.8 19.8 316.32 19.8 318.84 19.8 321.36 19.8 323.76 19.8 326.28 19.8 328.8 19.8 331.2 19.8 333.72 19.8 336.24 19.8 338.64 19.8 341.16 19.8 343.68 19.8 346.08 19.8 348.6 19.8 351.12 19.8 353.52 19.8 356.04 19.8 358.56 19.8 360.96 19.8 363.48 19.8 366 19.8 368.4 19.8 370.92 19.8 373.44 19.8 375.96 19.8 378.36 19.8 380.88 19.8 383.4 19.8 385.8 19.8 388.32 19.8 390.84 19.8 393.24 19.8 395.76 19.8 398.28 19.8 400.68 19.8 403.2 19.8 405.72 19.8 408.12 19.8 410.64 19.8 413.16 19.8 415.56 19.8 418.08 19.8 420.6 19.8 423.12 19.8 425.52 19.8 428.04 19.8 430.56 19.8 432.96 19.8 435.48 19.8 438 19.8 440.4 19.8 442.92 19.8 445.44 19.8 447.84 19.8 450.36 19.8 452.88 19.8 455.28 19.8 457.8 19.8 460.32 19.8 462.72 19.8 465.24 19.8 467.76 19.8 470.28 19.8 472.68 19.8 475.2 19.8 477.72 19.8 480.12 19.8 482.64 19.8 485.16 19.8 487.56 19.8 490.08 19.8 492.6 19.8 495 19.8 497.52 19.8 500.04 19.8 502.44 19.8 504.96 19.8 507.48 19.8 509.88 19.8 512.4 19.8 514.92 19.8 517.44 19.8 519.84 19.8 522.36 19.8 524.88 19.8 527.28 19.8 529.8 19.8 532.32 19.8 534.72 19.8 537.24 19.8 539.76 19.8 542.16 19.8 544.68 19.8 547.2 19.8 549.6 19.8 552.12 19.8 554.64 19.8 557.04 19.8 559.56 19.8 562.08 19.8 564.48 19.8 567 19.8 569.52 19.8 572.04 19.8 574.44 19.8 576.96 19.8 579.48 19.8 581.88 19.8 584.4 19.8 586.92 19.8 589.32 19.8 591.84 19.8 594.36 19.8 596.76 19.8 599.28 19.8 601.8 19.8 604.2 19.8 606.72 19.8 609.24 19.8 611.64 19.8 614.16 19.8 616.68 19.8 619.2 19.8 621.6 19.8 624.12 19.8 626.64 19.8 629.04 19.8 631.56 19.8 634.08 19.8 636.48 19.8 639 19.8 641.52 19.8 643.92 19.8 646.44 19.8 648.96 19.8 651.36 19.8 653.88 19.8 656.4 19.8 658.8 19.8 661.32 19.8 663.84 19.8 663.84 34.08 661.32 19.8 658.8 19.8 656.4 35.16 653.88 86.16 651.36 66.96 648.96 59.52 646.44 80.28 643.92 135.6 641.52 90.6 639 89.16 636.48 104.52 634.08 80.28 631.56 91.92 629.04 131.64 626.64 122.28 624.12 118.2 621.6 83.16 619.2 97.08 616.68 98.76 614.16 51.6 611.64 44.28 609.24 19.8 606.72 43.44 604.2 24 601.8 24.84 599.28 19.8 596.76 38.4 594.36 35.16 591.84 21.24 589.32 34.08 586.92 54.12 584.4 28.68 581.88 30.48 579.48 91.68 576.96 87.24 574.44 58.8 572.04 87.24 569.52 86.76 567 57.96 564.48 62.4 562.08 147.24 559.56 79.68 557.04 49.08 554.64 27.36 552.12 29.64 549.6 49.68 547.2 62.4 544.68 64.32 542.16 36.6 539.76 36.24 537.24 63.36 534.72 19.8 532.32 31.56 529.8 38.04 527.28 61.92 524.88 98.28 522.36 60.48 519.84 63.36 517.44 25.32 514.92 24.96 512.4 40.8 509.88 37.32 507.48 31.44 504.96 60.36 502.44 54.72 500.04 24.72 497.52 19.8 495 40.56 492.6 35.64 490.08 19.8 487.56 23.16 485.16 26.52 482.64 33.96 480.12 24.96 477.72 21.84 475.2 27.24 472.68 24.36 470.28 25.44 467.76 28.8 465.24 30.6 462.72 28.2 460.32 87.84 457.8 80.4 455.28 84.24 452.88 101.52 450.36 122.04 447.84 93.48 445.44 104.04 442.92 109.68 440.4 128.88 438 110.64 435.48 67.68 432.96 56.76 430.56 50.64 428.04 81.24 425.52 63.84 423.12 38.52 420.6 44.4 418.08 23.16 415.56 34.68 413.16 30.72 410.64 21.84 408.12 41.76 405.72 31.92 403.2 19.8 400.68 19.8 398.28 24 395.76 21.96 393.24 29.4 390.84 19.8 388.32 27.6 385.8 41.28 383.4 34.56 380.88 22.68 378.36 41.28 375.96 19.8 373.44 19.8 370.92 26.28 368.4 28.32 366 57.36 363.48 46.2 360.96 51.6 358.56 39.12 356.04 75.84 353.52 88.92 351.12 99.24 348.6 93.48 346.08 128.04 343.68 160.68 341.16 172.56 338.64 180 336.24 188.76 333.72 196.92 331.2 180.96 328.8 191.64 326.28 151.8 323.76 128.28 321.36 137.52 318.84 163.08 316.32 184.08 313.8 176.52 311.4 171.84 308.88 212.88 306.36 174 303.96 148.8 301.44 120.24 298.92 98.76 296.52 90.96 294 89.88 291.48 88.2 289.08 112.44 286.56 126.36 284.04 150.24 281.64 164.76 279.12 165.72 276.6 190.32 274.2 164.16 271.68 176.88 269.16 141.96 266.64 110.52 264.24 111.84 261.72 153.48 259.2 161.64 256.8 164.04 254.28 185.88 251.76 191.88 249.36 171.72 246.84 174.12 244.32 204.96 241.92 218.88 239.4 215.04 236.88 250.44 234.48 286.56 231.96 305.4 229.44 285.6 227.04 272.64 224.52 289.32 222 253.92 219.48 225.84 217.08 168 214.56 183.6 212.04 185.16 209.64 131.88 207.12 130.32 204.6 154.08 202.2 140.16 199.68 135.36 197.16 85.92 194.76 88.32 192.24 50.64 189.72 67.2 187.32 75.36 184.8 63 182.28 51.36 179.88 56.16 177.36 67.44 174.84 87.6 172.32 81.36 169.92 79.44 167.4 77.52 164.88 82.32 162.48 94.08 159.96 92.64 157.44 96.12 155.04 125.52 152.52 92.76 150 86.76 147.6 45.84 145.08 42.72 142.56 58.32 140.16 45.12 137.64 81.36 135.12 72.6 132.72 100.08 130.2 89.28 127.68 98.76 125.28 86.28 122.76 101.4 120.24 105.72 117.72 149.04 115.32 121.56 112.8 112.32 110.28 121.08 107.88 94.44 105.36 103.2 102.84 122.4 100.44 133.68 97.92 142.08 95.4 112.68 93 76.32 90.48 88.44 87.96 109.32 85.56 86.28 83.04 65.88 80.52 61.8 78.12 31.56 75.6 23.64 73.08 46.32 70.56 78 68.16 19.8 65.64 42 63.12 42.24 60.72 19.8 58.2 25.08 55.68 78.48 53.28 79.08 50.76 83.4 48.24 19.8 48.24 19.8 48.24 19.8"/>
      </g>
      <g class="cls-29">
        <line class="cls-14" x1="47.04" y1="365.64" x2="47.04" y2="19.8"/>
      </g>
      <g class="cls-9">
        <path class="cls-14" d="m43.44,365.64h7.2m-7.2-34.56h7.2m-7.2-34.68h7.2m-7.2-34.56h7.2m-7.2-34.56h7.2m-7.2-34.56h7.2m-7.2-34.56h7.2m-7.2-34.56h7.2m-7.2-34.68h7.2m-7.2-34.56h7.2m-7.2-34.56h7.2"/>
      </g>
      <g class="cls-46">
        <line class="cls-17" x1="47.04" y1="365.64" x2="665.04" y2="365.64"/>
      </g>
      <g class="cls-30">
        <path class="cls-17" d="m47.04,363v5.28m29.76-5.28v5.28m29.76-5.28v5.28m29.88-5.28v5.28m29.76-5.28v5.28m29.76-5.28v5.28m29.76-5.28v5.28m29.76-5.28v5.28m29.88-5.28v5.28m29.76-5.28v5.28m29.76-5.28v5.28m29.76-5.28v5.28m29.76-5.28v5.28m29.88-5.28v5.28m29.76-5.28v5.28m29.76-5.28v5.28m29.76-5.28v5.28m29.76-5.28v5.28m29.88-5.28v5.28m29.76-5.28v5.28m29.76-5.28v5.28m-595.68-6.24v7.08m119.16-7.08v7.08m119.16-7.08v7.08m119.04-7.08v7.08m119.16-7.08v7.08m119.16-7.08v7.08"/>
      </g>
      <g class="cls-53">
        <polyline class="cls-19" points="48.3 19.86 50.7 83.46 53.22 79.02 55.74 78.42 58.26 25.14 60.66 19.86 63.18 42.18 65.7 41.94 68.1 19.86 70.62 78.06 73.14 46.38 75.54 23.58 78.06 31.62 80.58 61.74 82.98 65.94 85.5 86.34 88.02 109.26 90.42 88.38 92.94 76.26 95.46 112.62 97.86 142.14 100.38 133.74 102.9 122.46 105.42 103.14 107.82 94.38 110.34 121.02 112.86 112.38 115.26 121.5 117.78 148.98 120.3 105.78 122.7 101.46 125.22 86.22 127.74 98.82 130.14 89.34 132.66 100.14 135.18 72.66 137.58 81.42 140.1 45.18 142.62 58.26 145.02 42.78 147.54 45.78 150.06 86.82 152.58 92.82 154.98 125.46 157.5 96.06 160.02 92.7 162.42 94.14 164.94 82.26 167.46 77.58 169.86 79.5 172.38 81.3 174.9 87.66 177.3 67.38 179.82 56.1 182.34 51.42 184.74 62.94 187.26 75.3 189.78 67.26 192.18 50.7 194.7 88.26 197.22 85.98 199.74 135.3 202.14 140.1 204.66 154.14 207.18 130.26 209.58 131.94 212.1 185.1 214.62 183.54 217.02 167.94 219.54 225.9 222.06 253.86 224.46 289.38 226.98 272.58 229.5 285.54 231.9 305.46 234.42 286.62 236.94 250.5 239.34 214.98 241.86 218.82 244.38 205.02 246.78 174.06 249.3 171.66 251.82 191.94 254.34 185.82 256.74 164.1 259.26 161.58 261.78 153.42 264.18 111.78 266.7 110.46 269.22 142.02 271.62 176.94 274.14 164.1 276.66 190.38 279.06 165.66 281.58 164.7 284.1 150.3 286.5 126.42 289.02 112.5 291.54 88.14 293.94 89.82 296.46 90.9 298.98 98.7 301.5 120.3 303.9 148.86 306.42 174.06 308.94 212.82 311.34 171.9 313.86 176.46 316.38 184.02 318.78 163.14 321.3 137.58 323.82 128.22 326.22 151.86 328.74 191.7 331.26 180.9 333.66 196.86 336.18 188.7 338.7 180.06 341.1 172.5 343.62 160.62 346.14 127.98 348.66 93.42 351.06 99.3 353.58 88.98 356.1 75.9 358.5 39.18 361.02 51.66 363.54 46.14 365.94 57.42 368.46 28.26 370.98 26.22 373.38 19.86 375.9 19.86 378.42 41.22 380.82 22.62 383.34 34.62 385.86 41.34 388.26 27.66 390.78 19.86 393.3 29.34 395.82 21.9 398.22 23.94 400.74 19.86 403.26 19.86 405.66 31.98 408.18 41.82 410.7 21.78 413.1 30.66 415.62 34.74 418.14 23.22 420.54 44.46 423.06 38.46 425.58 63.9 427.98 81.18 430.5 50.58 433.02 56.82 435.42 67.62 437.94 110.7 440.46 128.82 442.86 109.62 445.38 104.1 447.9 93.54 450.42 121.98 452.82 101.58 455.34 84.3 457.86 80.34 460.26 87.78 462.78 28.26 465.3 30.66 467.7 28.74 470.22 25.5 472.74 24.42 475.14 27.3 477.66 21.78 480.18 24.9 482.58 33.9 485.1 26.58 487.62 23.1 490.02 19.86 492.54 35.58 495.06 40.5 497.58 19.86 499.98 24.66 502.5 54.78 505.02 60.42 507.42 31.5 509.94 37.38 512.46 40.86 514.86 25.02 517.38 25.26 519.9 63.3 522.3 60.54 524.82 98.34 527.34 61.98 529.74 37.98 532.26 31.62 534.78 19.86 537.18 63.42 539.7 36.18 542.22 36.54 544.74 64.26 547.14 62.34 549.66 49.74 552.18 29.58 554.58 27.3 557.1 49.02 559.62 79.62 562.02 147.18 564.54 62.34 567.06 57.9 569.46 86.7 571.98 87.18 574.5 58.74 576.9 87.18 579.42 91.74 581.94 30.42 584.34 28.62 586.86 54.06 589.38 34.02 591.9 21.3 594.3 35.22 596.82 38.46 599.34 19.86 601.74 24.78 604.26 24.06 606.78 43.5 609.18 19.86 611.7 44.22 614.22 51.66 616.62 98.82 619.14 97.02 621.66 83.1 624.06 118.26 626.58 122.34 629.1 131.58 631.5 91.86 634.02 80.34 636.54 104.58 638.94 89.22 641.46 90.66 643.98 135.54 646.5 80.34 648.9 59.58 651.42 66.9 653.94 86.22 656.34 35.1 658.86 19.86 661.38 19.86 663.78 34.02"/>
      </g>
      <g class="cls-21">
        <polyline class="cls-15" points="48.24 19.8 50.76 46.32 53.28 55.68 55.68 52.68 58.2 24.72 60.72 19.8 63.12 27.72 65.64 19.8 68.16 24.24 70.56 46.8 73.08 33.36 75.6 31.44 78.12 21.6 80.52 29.04 83.04 21.24 85.56 52.2 87.96 38.4 90.48 34.92 93 32.88 95.4 36.24 97.92 41.4 100.44 35.28 102.84 43.08 105.36 38.76 107.88 29.04 110.28 33.84 112.8 24.12 115.32 25.92 117.72 41.52 120.24 19.8 122.76 21.48 125.28 21.36 127.68 30.12 130.2 19.8 132.72 19.8 135.12 24.24 137.64 32.52 140.16 25.32 142.56 30.84 145.08 22.08 147.6 30.84 150 43.92 152.52 38.28 155.04 35.52 157.44 19.8 159.96 19.8 162.48 27 164.88 26.4 167.4 21.36 169.92 21.6 172.32 39.72 174.84 38.04 177.36 22.8 179.88 19.8 182.28 27.36 184.8 50.64 187.32 53.52 189.72 44.52 192.24 37.68 194.76 62.76 197.16 63.48 199.68 95.16 202.2 110.52 204.6 121.56 207.12 98.88 209.64 91.2 212.04 112.68 214.56 110.76 217.08 105 219.48 134.04 222 186.84 224.52 204.6 227.04 211.2 229.44 225.36 231.96 229.68 234.48 215.64 236.88 201.84 239.4 198.48 241.92 196.32 244.32 186.72 246.84 183.24 249.36 183.36 251.76 186 254.28 183 256.8 165.24 259.2 178.2 261.72 175.2 264.24 153.48 266.64 149.28 269.16 172.44 271.68 187.8 274.2 179.64 276.6 192.6 279.12 178.68 281.64 178.92 284.04 171.24 286.56 164.52 289.08 157.44 291.48 151.08 294 147.36 296.52 146.16 298.92 147.84 301.44 153.96 303.96 168 306.36 179.04 308.88 191.16 311.4 169.32 313.8 171.12 316.32 171 318.84 163.92 321.36 141.72 323.76 129.48 326.28 139.68 328.8 157.2 331.2 144.6 333.72 146.16 336.24 140.4 338.64 135.84 341.16 134.88 343.68 125.64 346.08 111 348.6 82.44 351.12 75.96 353.52 59.88 356.04 43.08 358.56 36.24 360.96 44.88 363.48 32.88 366 41.52 368.4 31.92 370.92 22.2 373.44 19.8 375.96 19.8 378.36 42.12 380.88 28.2 383.4 20.76 385.8 26.16 388.32 19.8 390.84 22.68 393.24 27 395.76 19.8 398.28 24.36 400.68 19.8 403.2 19.8 405.72 27.48 408.12 43.92 410.64 20.16 413.16 27.36 415.56 26.28 418.08 21.48 420.6 33.48 423.12 24.72 425.52 52.08 428.04 63.24 430.56 35.76 432.96 27.96 435.48 41.04 438 54.84 440.4 76.92 442.92 57.6 445.44 73.08 447.84 56.04 450.36 76.32 452.88 69 455.28 64.56 457.8 70.56 460.32 66 462.72 26.4 465.24 27.12 467.76 33 470.28 22.68 472.68 31.68 475.2 27.96 477.72 28.2 480.12 21.96 482.64 25.8 485.16 25.68 487.56 19.8 490.08 20.64 492.6 19.8 495 23.04 497.52 26.28 500.04 46.32 502.44 55.08 504.96 45.36 507.48 39.24 509.88 31.44 512.4 22.68 514.92 23.28 517.44 19.8 519.84 49.2 522.36 40.92 524.88 80.4 527.28 59.76 529.8 42.72 532.32 37.92 534.72 22.92 537.24 53.76 539.76 33.12 542.16 25.44 544.68 38.52 547.2 26.76 549.6 23.4 552.12 21.24 554.64 23.88 557.04 35.88 559.56 74.04 562.08 110.88 564.48 79.08 567 63.72 569.52 57.36 572.04 46.32 574.44 23.16 576.96 42.6 579.48 53.64 581.88 21.48 584.4 19.8 586.92 29.4 589.32 28.56 591.84 19.8 594.36 21.12 596.76 19.8 599.28 19.8 601.8 24 604.2 19.92 606.72 33 609.24 19.8 611.64 36.24 614.16 21.36 616.68 42.6 619.2 52.56 621.6 30.6 624.12 43.32 626.64 45.36 629.04 55.68 631.56 33.24 634.08 39 636.48 59.64 639 25.8 641.52 32.52 643.92 67.56 646.44 51.24 648.96 44.64 651.36 40.92 653.88 27.36 656.4 24.96 658.8 19.8 661.32 19.8 663.84 21.96"/>
      </g>
      <g class="cls-26">
        <g class="cls-48">
          <g>
            <path class="cls-25" d="m17.199,365.179v.862h-3.513v-.862h3.513Z"/>
            <path class="cls-25" d="m21.603,361.023v8.029h-.972v-7.01h-.047l-1.96,1.302v-.988l2.007-1.333h.972Z"/>
            <path class="cls-25" d="m26.55,369.162c-.591,0-1.094-.161-1.51-.483-.416-.323-.733-.792-.953-1.408-.219-.615-.329-1.359-.329-2.232,0-.867.11-1.609.331-2.225.221-.615.54-1.086.957-1.411.417-.326.918-.488,1.504-.488s1.086.162,1.503.488c.417.325.735.796.957,1.411.221.615.331,1.357.331,2.225,0,.873-.11,1.617-.329,2.232-.22.616-.537,1.085-.953,1.408-.416.322-.919.483-1.509.483Zm0-.862c.585,0,1.04-.282,1.364-.847.324-.564.486-1.369.486-2.415,0-.695-.074-1.287-.221-1.775-.148-.489-.359-.861-.635-1.118-.276-.256-.607-.384-.994-.384-.581,0-1.034.285-1.36.856-.327.571-.49,1.378-.49,2.421,0,.695.073,1.286.219,1.772.146.485.357.855.633,1.109.276.253.608.38.998.38Z"/>
            <path class="cls-25" d="m33.394,369.162c-.591,0-1.094-.161-1.51-.483-.416-.323-.733-.792-.953-1.408-.219-.615-.329-1.359-.329-2.232,0-.867.11-1.609.331-2.225.221-.615.54-1.086.957-1.411.417-.326.918-.488,1.504-.488s1.086.162,1.503.488c.417.325.735.796.957,1.411.221.615.331,1.357.331,2.225,0,.873-.11,1.617-.329,2.232-.22.616-.537,1.085-.953,1.408-.416.322-.919.483-1.509.483Zm0-.862c.585,0,1.04-.282,1.364-.847.324-.564.486-1.369.486-2.415,0-.695-.074-1.287-.221-1.775-.148-.489-.359-.861-.635-1.118-.276-.256-.607-.384-.994-.384-.581,0-1.034.285-1.36.856-.327.571-.49,1.378-.49,2.421,0,.695.073,1.286.219,1.772.146.485.357.855.633,1.109.276.253.608.38.998.38Z"/>
          </g>
        </g>
      </g>
      <g class="cls-39">
        <g class="cls-55">
          <g>
            <path class="cls-25" d="m22.324,330.609v.862h-3.513v-.862h3.513Z"/>
            <path class="cls-25" d="m26.462,326.343c.33.003.659.065.988.188.33.122.63.325.902.609.272.283.49.67.655,1.158.165.489.247,1.102.247,1.839,0,.714-.067,1.347-.202,1.899-.134.553-.328,1.019-.58,1.397s-.558.667-.917.862c-.359.196-.765.294-1.217.294-.45,0-.85-.089-1.202-.269-.352-.179-.639-.428-.862-.748s-.367-.692-.429-1.116h.957c.086.369.258.673.516.912.257.239.598.358,1.021.358.62,0,1.109-.271,1.468-.812s.539-1.306.539-2.293h-.062c-.146.22-.32.409-.521.568s-.425.282-.67.368-.507.13-.784.13c-.46,0-.881-.114-1.264-.344-.383-.229-.689-.543-.917-.944-.229-.401-.343-.86-.343-1.378,0-.491.11-.941.332-1.351.221-.409.532-.735.933-.979.401-.243.874-.36,1.417-.353Zm0,.862c-.329,0-.625.082-.888.245-.263.163-.471.383-.624.658-.153.276-.229.581-.229.916s.074.638.222.911c.147.273.35.49.607.651.258.16.551.24.88.24.248,0,.479-.049.694-.146s.402-.232.562-.404c.161-.171.287-.365.378-.584.091-.218.137-.446.137-.684,0-.313-.075-.608-.226-.883-.15-.274-.356-.496-.619-.666s-.562-.255-.896-.255Z"/>
            <path class="cls-25" d="m33.365,334.591c-.591,0-1.094-.161-1.51-.483-.416-.323-.733-.792-.953-1.408-.219-.615-.329-1.359-.329-2.232,0-.867.11-1.609.331-2.225.221-.615.54-1.086.957-1.411.417-.326.918-.488,1.504-.488s1.086.162,1.503.488c.417.325.735.796.957,1.411.221.615.331,1.357.331,2.225,0,.873-.11,1.617-.329,2.232-.22.616-.537,1.085-.953,1.408-.416.322-.919.483-1.509.483Zm0-.862c.585,0,1.04-.282,1.364-.847.324-.564.486-1.369.486-2.415,0-.695-.074-1.287-.221-1.775-.148-.489-.359-.861-.635-1.118-.276-.256-.607-.384-.994-.384-.581,0-1.034.285-1.36.856-.327.571-.49,1.378-.49,2.421,0,.695.073,1.286.219,1.772.146.485.357.855.633,1.109.276.253.608.38.998.38Z"/>
          </g>
        </g>
      </g>
      <g class="cls-3">
        <g class="cls-35">
          <g>
            <path class="cls-25" d="m22.402,296.023v.862h-3.513v-.862h3.513Z"/>
            <path class="cls-25" d="m26.555,300.005c-.538,0-1.013-.096-1.425-.288-.412-.191-.733-.457-.962-.796-.23-.338-.344-.725-.341-1.158-.002-.34.064-.654.2-.942.136-.289.322-.531.559-.726.236-.194.501-.318.794-.37v-.048c-.384-.099-.69-.315-.917-.648-.228-.333-.34-.713-.337-1.139-.002-.408.101-.772.31-1.094.209-.322.497-.575.864-.761s.786-.278,1.256-.278c.465,0,.881.093,1.247.278.366.186.654.438.864.761.21.321.317.686.319,1.094-.002.426-.118.806-.347,1.139-.229.333-.531.55-.908.648v.048c.29.052.551.176.784.37.232.194.418.437.557.726.139.288.209.603.211.942-.002.434-.119.82-.351,1.158-.231.339-.552.604-.96.796-.409.192-.882.288-1.417.288Zm0-.862c.363,0,.677-.059.941-.176.264-.118.468-.284.612-.498.144-.215.217-.466.219-.753-.002-.304-.081-.571-.235-.804-.154-.232-.364-.416-.629-.549-.265-.134-.568-.2-.908-.2-.342,0-.647.066-.916.2-.268.133-.478.316-.631.549s-.228.5-.226.804c-.002.287.067.538.21.753.142.214.347.38.613.498.267.117.583.176.949.176Zm0-3.811c.288,0,.543-.058.767-.173.224-.114.399-.275.527-.481.128-.207.193-.448.196-.726-.002-.271-.066-.509-.192-.712-.125-.202-.299-.359-.521-.47-.222-.111-.481-.167-.776-.167-.3,0-.563.056-.788.167-.225.11-.398.268-.521.47-.123.203-.183.44-.181.712-.002.277.06.519.187.726.126.206.302.367.527.481.225.115.484.173.776.173Z"/>
            <path class="cls-25" d="m33.442,300.005c-.591,0-1.094-.161-1.51-.483-.416-.323-.733-.792-.953-1.408-.219-.615-.329-1.359-.329-2.232,0-.867.11-1.609.331-2.225.221-.615.54-1.086.957-1.411.417-.326.918-.488,1.504-.488s1.086.162,1.503.488c.417.325.735.796.957,1.411.221.615.331,1.357.331,2.225,0,.873-.11,1.617-.329,2.232-.22.616-.537,1.085-.953,1.408-.416.322-.919.483-1.509.483Zm0-.862c.585,0,1.04-.282,1.364-.847.324-.564.486-1.369.486-2.415,0-.695-.074-1.287-.221-1.775-.148-.489-.359-.861-.635-1.118-.276-.256-.607-.384-.994-.384-.581,0-1.034.285-1.36.856-.327.571-.49,1.378-.49,2.421,0,.695.073,1.286.219,1.772.146.485.357.855.633,1.109.276.253.608.38.998.38Z"/>
          </g>
        </g>
      </g>
      <g class="cls-10">
        <g class="cls-51">
          <g>
            <path class="cls-25" d="m22.909,261.445v.862h-3.513v-.862h3.513Z"/>
            <path class="cls-25" d="m24.742,265.318l3.591-7.104v-.063h-4.14v-.862h5.144v.91l-3.575,7.119h-1.02Z"/>
            <path class="cls-25" d="m33.47,265.427c-.591,0-1.094-.161-1.51-.483-.416-.323-.733-.792-.953-1.408-.219-.615-.329-1.359-.329-2.232,0-.867.11-1.609.331-2.225.221-.615.54-1.086.957-1.411.417-.326.918-.488,1.504-.488s1.086.162,1.503.488c.417.325.735.796.957,1.411.221.615.331,1.357.331,2.225,0,.873-.11,1.617-.329,2.232-.22.616-.537,1.085-.953,1.408-.416.322-.919.483-1.509.483Zm0-.862c.585,0,1.04-.282,1.364-.847.324-.564.486-1.369.486-2.415,0-.695-.074-1.287-.221-1.775-.148-.489-.359-.861-.635-1.118-.276-.256-.607-.384-.994-.384-.581,0-1.034.285-1.36.856-.327.571-.49,1.378-.49,2.421,0,.695.073,1.286.219,1.772.146.485.357.855.633,1.109.276.253.608.38.998.38Z"/>
          </g>
        </g>
      </g>
      <g class="cls-20">
        <g class="cls-4">
          <g>
            <path class="cls-25" d="m22.324,226.867v.862h-3.513v-.862h3.513Z"/>
            <path class="cls-25" d="m26.572,230.849c-.329-.005-.659-.067-.988-.188-.33-.12-.63-.323-.902-.61-.272-.286-.49-.674-.655-1.164s-.247-1.106-.247-1.849c0-.711.067-1.341.2-1.892.133-.55.327-1.014.58-1.392s.56-.664.919-.86.765-.294,1.217-.294c.449,0,.85.09,1.202.269s.638.428.86.747c.222.318.366.686.431,1.102h-.957c-.089-.361-.261-.66-.518-.898-.256-.237-.596-.356-1.019-.356-.622,0-1.111.271-1.468.812s-.537,1.301-.539,2.277h.062c.146-.222.321-.412.523-.57s.427-.28.672-.366.506-.129.78-.129c.46,0,.881.114,1.262.343.382.229.688.543.917.944s.345.86.345,1.378c0,.497-.111.951-.333,1.362-.222.412-.534.739-.935.98-.401.242-.872.36-1.413.354Zm0-.862c.329,0,.625-.082.888-.247.262-.164.47-.385.623-.662s.229-.586.229-.926c0-.331-.074-.634-.222-.907-.147-.273-.35-.49-.607-.652-.258-.162-.551-.243-.88-.243-.248,0-.479.049-.694.146-.214.099-.402.232-.562.402s-.287.363-.378.582c-.091.218-.137.447-.137.688,0,.319.075.617.226.895.15.276.356.5.619.67s.562.255.896.255Z"/>
            <path class="cls-25" d="m33.365,230.849c-.591,0-1.094-.161-1.51-.483-.416-.323-.733-.792-.953-1.408-.219-.615-.329-1.359-.329-2.232,0-.867.11-1.609.331-2.225.221-.615.54-1.086.957-1.411.417-.326.918-.488,1.504-.488s1.086.162,1.503.488c.417.325.735.796.957,1.411.221.615.331,1.357.331,2.225,0,.873-.11,1.617-.329,2.232-.22.616-.537,1.085-.953,1.408-.416.322-.919.483-1.509.483Zm0-.862c.585,0,1.04-.282,1.364-.847.324-.564.486-1.369.486-2.415,0-.695-.074-1.287-.221-1.775-.148-.489-.359-.861-.635-1.118-.276-.256-.607-.384-.994-.384-.581,0-1.034.285-1.36.856-.327.571-.49,1.378-.49,2.421,0,.695.073,1.286.219,1.772.146.485.357.855.633,1.109.276.253.608.38.998.38Z"/>
          </g>
        </g>
      </g>
      <g class="cls-52">
        <g class="cls-50">
          <g>
            <path class="cls-25" d="m22.495,192.287v.863h-3.513v-.863h3.513Z"/>
            <path class="cls-25" d="m26.587,196.271c-.46,0-.875-.092-1.243-.274-.369-.183-.664-.434-.886-.753-.222-.318-.344-.682-.365-1.09h.941c.037.363.202.663.496.9.294.236.646.354,1.057.354.329,0,.623-.077.88-.231s.46-.366.608-.637c.147-.271.221-.577.221-.92,0-.35-.076-.663-.229-.938s-.363-.493-.629-.653c-.267-.159-.571-.24-.914-.242-.246-.003-.498.034-.756.111s-.472.176-.639.296l-.91-.109.486-3.952h4.171v.862h-3.356l-.282,2.368h.047c.165-.131.371-.239.62-.325.248-.087.507-.13.776-.13.492,0,.93.117,1.315.352.386.233.689.553.91.958s.331.868.331,1.388c0,.513-.114.97-.343,1.37-.229.401-.543.718-.943.949s-.854.347-1.364.347Z"/>
            <path class="cls-25" d="m33.408,196.271c-.591,0-1.094-.161-1.51-.484-.416-.322-.733-.792-.953-1.407-.219-.615-.329-1.359-.329-2.232,0-.868.11-1.609.331-2.225.221-.616.54-1.086.957-1.412.417-.325.918-.487,1.504-.487s1.086.162,1.503.487c.417.326.735.796.957,1.412.221.615.331,1.356.331,2.225,0,.873-.11,1.617-.329,2.232-.22.615-.537,1.085-.953,1.407-.416.323-.919.484-1.509.484Zm0-.862c.585,0,1.04-.282,1.364-.847.324-.564.486-1.37.486-2.415,0-.695-.074-1.287-.221-1.776-.148-.488-.359-.861-.635-1.117s-.607-.384-.994-.384c-.581,0-1.034.285-1.36.856-.327.571-.49,1.378-.49,2.421,0,.695.073,1.286.219,1.771.146.486.357.856.633,1.11.276.253.608.38.998.38Z"/>
          </g>
        </g>
      </g>
      <g class="cls-44">
        <g class="cls-2">
          <g>
            <path class="cls-25" d="m22.12,157.709v.863h-3.513v-.863h3.513Z"/>
            <path class="cls-25" d="m23.514,159.937v-.8l3.528-5.583h.58v1.239h-.392l-2.666,4.218v.062h4.751v.863h-5.802Zm3.779,1.646v-8.029h.925v8.029h-.925Z"/>
            <path class="cls-25" d="m33.409,161.693c-.591,0-1.094-.161-1.51-.484-.416-.322-.733-.792-.953-1.407-.219-.615-.329-1.359-.329-2.232,0-.868.11-1.609.331-2.225.221-.616.54-1.086.957-1.412.417-.325.918-.487,1.504-.487s1.086.162,1.503.487c.417.326.735.796.957,1.412.221.615.331,1.356.331,2.225,0,.873-.11,1.617-.329,2.232-.22.615-.537,1.085-.953,1.407-.416.323-.919.484-1.509.484Zm0-.862c.585,0,1.04-.282,1.364-.847.324-.564.486-1.37.486-2.415,0-.695-.074-1.287-.221-1.776-.148-.488-.359-.861-.635-1.117s-.607-.384-.994-.384c-.581,0-1.034.285-1.36.856-.327.571-.49,1.378-.49,2.421,0,.695.073,1.286.219,1.771.146.486.357.856.633,1.11.276.253.608.38.998.38Z"/>
          </g>
        </g>
      </g>
      <g class="cls-27">
        <g class="cls-38">
          <g>
            <path class="cls-25" d="m22.183,123.124v.863h-3.513v-.863h3.513Z"/>
            <path class="cls-25" d="m26.478,127.107c-.518,0-.978-.089-1.382-.267s-.724-.425-.96-.743c-.237-.317-.365-.687-.386-1.107h.988c.021.259.11.481.267.668.157.187.362.332.616.433.253.102.535.153.843.153.345,0,.651-.06.917-.18s.476-.288.627-.502c.151-.214.227-.462.227-.745,0-.295-.073-.556-.219-.782-.146-.226-.361-.403-.643-.531s-.627-.192-1.035-.192h-.643v-.863h.643c.319,0,.599-.057.841-.172.242-.115.432-.277.569-.486.137-.209.206-.455.206-.737,0-.272-.06-.508-.18-.709s-.29-.358-.508-.471-.475-.168-.771-.168c-.277,0-.538.05-.782.151-.245.101-.444.246-.598.435s-.238.417-.251.684h-.941c.016-.42.143-.79.38-1.107s.549-.565.935-.743.81-.267,1.272-.267c.496,0,.922.1,1.278.3.355.2.628.463.819.79s.286.679.286,1.059c0,.452-.118.837-.354,1.156-.237.319-.558.54-.963.663v.063c.507.083.903.298,1.188.645.285.347.427.774.427,1.284,0,.437-.118.828-.354,1.174-.237.346-.559.619-.966.817-.408.198-.872.298-1.392.298Z"/>
            <path class="cls-25" d="m33.453,127.107c-.591,0-1.094-.162-1.51-.484s-.733-.792-.953-1.407c-.219-.616-.329-1.36-.329-2.233,0-.868.11-1.609.331-2.225.221-.616.54-1.086.957-1.412.417-.325.918-.488,1.504-.488s1.086.163,1.503.488c.417.326.735.796.957,1.412.221.615.331,1.357.331,2.225,0,.873-.11,1.617-.329,2.233-.22.615-.537,1.084-.953,1.407s-.919.484-1.509.484Zm0-.863c.585,0,1.04-.282,1.364-.847.324-.564.486-1.37.486-2.415,0-.695-.074-1.287-.221-1.776-.148-.489-.359-.861-.635-1.117-.276-.256-.607-.384-.994-.384-.581,0-1.034.286-1.36.856-.327.571-.49,1.378-.49,2.421,0,.695.073,1.286.219,1.772.146.486.357.856.633,1.11.276.253.608.38.998.38Z"/>
          </g>
        </g>
      </g>
      <g class="cls-56">
        <g class="cls-36">
          <g>
            <path class="cls-25" d="m22.534,88.554v.863h-3.513v-.863h3.513Z"/>
            <path class="cls-25" d="m24.116,92.427v-.706l2.65-2.901c.311-.34.567-.636.769-.888.201-.252.351-.49.449-.714.098-.223.147-.458.147-.704,0-.282-.067-.526-.202-.733-.134-.207-.318-.366-.551-.479-.232-.112-.494-.168-.784-.168-.309,0-.577.063-.806.19-.229.127-.405.304-.529.531-.125.228-.187.494-.187.8h-.925c0-.47.108-.883.326-1.239.217-.355.513-.632.888-.831s.797-.298,1.265-.298c.47,0,.887.099,1.25.298s.648.466.854.804c.207.337.31.712.31,1.125,0,.295-.053.583-.159.865-.106.281-.289.593-.549.937-.26.344-.62.763-1.08,1.257l-1.803,1.929v.063h3.732v.862h-5.065Z"/>
            <path class="cls-25" d="m33.449,92.537c-.591,0-1.094-.162-1.51-.484s-.733-.792-.953-1.407c-.219-.616-.329-1.36-.329-2.233,0-.868.11-1.609.331-2.225.221-.616.54-1.086.957-1.412.417-.325.918-.488,1.504-.488s1.086.163,1.503.488c.417.326.735.796.957,1.412.221.615.331,1.357.331,2.225,0,.873-.11,1.617-.329,2.233-.22.615-.537,1.084-.953,1.407s-.919.484-1.509.484Zm0-.863c.585,0,1.04-.282,1.364-.847.324-.564.486-1.37.486-2.415,0-.695-.074-1.287-.221-1.776-.148-.489-.359-.861-.635-1.117-.276-.256-.607-.384-.994-.384-.581,0-1.034.286-1.36.856-.327.571-.49,1.378-.49,2.421,0,.695.073,1.286.219,1.772.146.486.357.856.633,1.11.276.253.608.38.998.38Z"/>
          </g>
        </g>
      </g>
      <g class="cls-13">
        <g class="cls-23">
          <g>
            <path class="cls-25" d="m24.074,53.975v.863h-3.513v-.863h3.513Z"/>
            <path class="cls-25" d="m28.478,49.82v8.029h-.972v-7.01h-.047l-1.96,1.302v-.988l2.007-1.333h.972Z"/>
            <path class="cls-25" d="m33.425,57.959c-.591,0-1.094-.162-1.51-.484s-.733-.792-.953-1.407c-.219-.616-.329-1.36-.329-2.233,0-.868.11-1.609.331-2.225.221-.616.54-1.086.957-1.412.417-.325.918-.488,1.504-.488s1.086.163,1.503.488c.417.326.735.796.957,1.412.221.615.331,1.357.331,2.225,0,.873-.11,1.617-.329,2.233-.22.615-.537,1.084-.953,1.407s-.919.484-1.509.484Zm0-.863c.585,0,1.04-.282,1.364-.847.324-.564.486-1.37.486-2.415,0-.695-.074-1.287-.221-1.776-.148-.489-.359-.861-.635-1.117-.276-.256-.607-.384-.994-.384-.581,0-1.034.286-1.36.856-.327.571-.49,1.378-.49,2.421,0,.695.073,1.286.219,1.772.146.486.357.856.633,1.11.276.253.608.38.998.38Z"/>
          </g>
        </g>
      </g>
      <g class="cls-33">
        <g class="cls-58">
          <path class="cls-25" d="m33.407,23.381c-.591,0-1.094-.162-1.51-.484s-.733-.792-.953-1.407c-.219-.616-.329-1.36-.329-2.233,0-.868.11-1.609.331-2.225.221-.616.54-1.086.957-1.412.417-.325.918-.488,1.504-.488s1.086.163,1.503.488c.417.326.735.796.957,1.412.221.615.331,1.357.331,2.225,0,.873-.11,1.617-.329,2.233-.22.615-.537,1.084-.953,1.407s-.919.484-1.509.484Zm0-.863c.585,0,1.04-.282,1.364-.847.324-.564.486-1.37.486-2.415,0-.695-.074-1.287-.221-1.776-.148-.489-.359-.861-.635-1.117-.276-.256-.607-.384-.994-.384-.581,0-1.034.286-1.36.856-.327.571-.49,1.378-.49,2.421,0,.695.073,1.286.219,1.772.146.486.357.856.633,1.11.276.253.608.38.998.38Z"/>
        </g>
      </g>
      <g class="cls-49">
        <g class="cls-37">
          <g>
            <path class="cls-25" d="m27.741,383.396v-.706l2.65-2.9c.311-.34.567-.636.769-.889.201-.252.351-.489.449-.713s.147-.458.147-.704c0-.282-.067-.526-.202-.733-.134-.206-.318-.365-.551-.478-.232-.112-.494-.169-.784-.169-.309,0-.577.063-.806.19-.229.126-.405.304-.529.531-.125.227-.187.493-.187.8h-.925c0-.471.108-.884.326-1.239.217-.355.513-.633.888-.831s.797-.298,1.265-.298c.47,0,.887.1,1.25.298s.648.467.854.804c.207.337.31.712.31,1.125,0,.296-.053.584-.159.864-.106.281-.289.594-.549.938-.26.344-.62.763-1.08,1.256l-1.803,1.93v.062h3.732v.862h-5.065Z"/>
            <path class="cls-25" d="m36.963,383.505c-.591,0-1.094-.161-1.51-.483-.416-.323-.733-.792-.953-1.408-.219-.615-.329-1.359-.329-2.232,0-.867.11-1.609.331-2.225.221-.615.54-1.086.957-1.411.417-.326.918-.488,1.504-.488s1.086.162,1.503.488c.417.325.735.796.957,1.411.221.615.331,1.357.331,2.225,0,.873-.11,1.617-.329,2.232-.22.616-.537,1.085-.953,1.408-.416.322-.919.483-1.509.483Zm0-.862c.585,0,1.04-.282,1.364-.847.324-.564.486-1.369.486-2.415,0-.695-.074-1.287-.221-1.775-.148-.489-.359-.861-.635-1.118-.276-.256-.607-.384-.994-.384-.581,0-1.034.285-1.36.856-.327.571-.49,1.378-.49,2.421,0,.695.073,1.286.219,1.772.146.485.357.855.633,1.109.276.253.608.38.998.38Z"/>
            <path class="cls-25" d="m43.918,383.505c-.591,0-1.094-.161-1.51-.483-.416-.323-.733-.792-.953-1.408-.219-.615-.329-1.359-.329-2.232,0-.867.11-1.609.331-2.225.221-.615.54-1.086.957-1.411.417-.326.918-.488,1.504-.488s1.086.162,1.503.488c.417.325.735.796.957,1.411.221.615.331,1.357.331,2.225,0,.873-.11,1.617-.329,2.232-.22.616-.537,1.085-.953,1.408-.416.322-.919.483-1.509.483Zm0-.862c.585,0,1.04-.282,1.364-.847.324-.564.486-1.369.486-2.415,0-.695-.074-1.287-.221-1.775-.148-.489-.359-.861-.635-1.118-.276-.256-.607-.384-.994-.384-.581,0-1.034.285-1.36.856-.327.571-.49,1.378-.49,2.421,0,.695.073,1.286.219,1.772.146.485.357.855.633,1.109.276.253.608.38.998.38Z"/>
            <path class="cls-25" d="m48.143,383.396v-.706l2.65-2.9c.311-.34.567-.636.769-.889.201-.252.351-.489.449-.713s.147-.458.147-.704c0-.282-.067-.526-.202-.733-.134-.206-.318-.365-.551-.478-.232-.112-.494-.169-.784-.169-.309,0-.577.063-.806.19-.229.126-.405.304-.529.531-.125.227-.187.493-.187.8h-.925c0-.471.108-.884.326-1.239.217-.355.513-.633.888-.831s.797-.298,1.265-.298c.47,0,.887.1,1.25.298s.648.467.854.804c.207.337.31.712.31,1.125,0,.296-.053.584-.159.864-.106.281-.289.594-.549.938-.26.344-.62.763-1.08,1.256l-1.803,1.93v.062h3.732v.862h-5.065Z"/>
            <path class="cls-25" d="m57.711,374.991l-2.587,9.612h-.847l2.587-9.612h.847Z"/>
            <path class="cls-25" d="m61.528,375.367v8.029h-.972v-7.01h-.047l-1.96,1.302v-.988l2.007-1.333h.972Z"/>
            <path class="cls-25" d="m63.855,383.396v-.706l2.65-2.9c.311-.34.567-.636.769-.889.201-.252.351-.489.449-.713s.147-.458.147-.704c0-.282-.067-.526-.202-.733-.134-.206-.318-.365-.551-.478-.232-.112-.494-.169-.784-.169-.309,0-.577.063-.806.19-.229.126-.405.304-.529.531-.125.227-.187.493-.187.8h-.925c0-.471.108-.884.326-1.239.217-.355.513-.633.888-.831s.797-.298,1.265-.298c.47,0,.887.1,1.25.298s.648.467.854.804c.207.337.31.712.31,1.125,0,.296-.053.584-.159.864-.106.281-.289.594-.549.938-.26.344-.62.763-1.08,1.256l-1.803,1.93v.062h3.732v.862h-5.065Z"/>
          </g>
        </g>
      </g>
      <g class="cls-45">
        <g class="cls-8">
          <g>
            <path class="cls-25" d="m146.772,383.396v-.706l2.65-2.9c.311-.34.567-.636.769-.889.201-.252.351-.489.449-.713s.147-.458.147-.704c0-.282-.067-.526-.202-.733-.134-.206-.318-.365-.551-.478-.232-.112-.494-.169-.784-.169-.309,0-.577.063-.806.19-.229.126-.405.304-.529.531-.125.227-.187.493-.187.8h-.925c0-.471.108-.884.326-1.239.217-.355.513-.633.888-.831s.797-.298,1.265-.298c.47,0,.887.1,1.25.298s.648.467.854.804c.207.337.31.712.31,1.125,0,.296-.053.584-.159.864-.106.281-.289.594-.549.938-.26.344-.62.763-1.08,1.256l-1.803,1.93v.062h3.732v.862h-5.065Z"/>
            <path class="cls-25" d="m155.994,383.505c-.591,0-1.094-.161-1.51-.483-.416-.323-.733-.792-.953-1.408-.219-.615-.329-1.359-.329-2.232,0-.867.11-1.609.331-2.225.221-.615.54-1.086.957-1.411.417-.326.918-.488,1.504-.488s1.086.162,1.503.488c.417.325.735.796.957,1.411.221.615.331,1.357.331,2.225,0,.873-.11,1.617-.329,2.232-.22.616-.537,1.085-.953,1.408-.416.322-.919.483-1.509.483Zm0-.862c.585,0,1.04-.282,1.364-.847.324-.564.486-1.369.486-2.415,0-.695-.074-1.287-.221-1.775-.148-.489-.359-.861-.635-1.118-.276-.256-.607-.384-.994-.384-.581,0-1.034.285-1.36.856-.327.571-.49,1.378-.49,2.421,0,.695.073,1.286.219,1.772.146.485.357.855.633,1.109.276.253.608.38.998.38Z"/>
            <path class="cls-25" d="m162.949,383.505c-.591,0-1.094-.161-1.51-.483-.416-.323-.733-.792-.953-1.408-.219-.615-.329-1.359-.329-2.232,0-.867.11-1.609.331-2.225.221-.615.54-1.086.957-1.411.417-.326.918-.488,1.504-.488s1.086.162,1.503.488c.417.325.735.796.957,1.411.221.615.331,1.357.331,2.225,0,.873-.11,1.617-.329,2.232-.22.616-.537,1.085-.953,1.408-.416.322-.919.483-1.509.483Zm0-.862c.585,0,1.04-.282,1.364-.847.324-.564.486-1.369.486-2.415,0-.695-.074-1.287-.221-1.775-.148-.489-.359-.861-.635-1.118-.276-.256-.607-.384-.994-.384-.581,0-1.034.285-1.36.856-.327.571-.49,1.378-.49,2.421,0,.695.073,1.286.219,1.772.146.485.357.855.633,1.109.276.253.608.38.998.38Z"/>
            <path class="cls-25" d="m169.841,383.505c-.329-.005-.659-.067-.988-.188-.33-.12-.63-.323-.902-.61-.272-.286-.49-.674-.655-1.164s-.247-1.106-.247-1.849c0-.711.067-1.341.2-1.892.133-.55.327-1.014.58-1.392s.56-.664.919-.86.765-.294,1.217-.294c.449,0,.85.09,1.202.269s.638.428.86.747c.222.318.366.686.431,1.102h-.957c-.089-.361-.261-.66-.518-.898-.256-.237-.596-.356-1.019-.356-.622,0-1.111.271-1.468.812s-.537,1.301-.539,2.277h.062c.146-.222.321-.412.523-.57s.427-.28.672-.366.506-.129.78-.129c.46,0,.881.114,1.262.343.382.229.688.543.917.944s.345.86.345,1.378c0,.497-.111.951-.333,1.362-.222.412-.534.739-.935.98-.401.242-.872.36-1.413.354Zm0-.862c.329,0,.625-.082.888-.247.262-.164.47-.385.623-.662s.229-.586.229-.926c0-.331-.074-.634-.222-.907-.147-.273-.35-.49-.607-.652-.258-.162-.551-.243-.88-.243-.248,0-.479.049-.694.146-.214.099-.402.232-.562.402s-.287.363-.378.582c-.091.218-.137.447-.137.688,0,.319.075.617.226.895.15.276.356.5.619.67s.562.255.896.255Z"/>
            <path class="cls-25" d="m176.869,374.991l-2.587,9.612h-.847l2.587-9.612h.847Z"/>
            <path class="cls-25" d="m180.796,375.367v8.029h-.972v-7.01h-.047l-1.96,1.302v-.988l2.007-1.333h.972Z"/>
            <path class="cls-25" d="m183.023,383.396v-.706l2.65-2.9c.311-.34.567-.636.769-.889.201-.252.351-.489.449-.713s.147-.458.147-.704c0-.282-.067-.526-.202-.733-.134-.206-.318-.365-.551-.478-.232-.112-.494-.169-.784-.169-.309,0-.577.063-.806.19-.229.126-.405.304-.529.531-.125.227-.187.493-.187.8h-.925c0-.471.108-.884.326-1.239.217-.355.513-.633.888-.831s.797-.298,1.265-.298c.47,0,.887.1,1.25.298s.648.467.854.804c.207.337.31.712.31,1.125,0,.296-.053.584-.159.864-.106.281-.289.594-.549.938-.26.344-.62.763-1.08,1.256l-1.803,1.93v.062h3.732v.862h-5.065Z"/>
          </g>
        </g>
      </g>
      <g class="cls-5">
        <g class="cls-28">
          <g>
            <path class="cls-25" d="m266.78,383.396v-.706l2.65-2.9c.311-.34.566-.636.769-.889.201-.252.351-.489.448-.713.099-.224.147-.458.147-.704,0-.282-.067-.526-.202-.733-.135-.206-.318-.365-.551-.478s-.494-.169-.784-.169c-.309,0-.577.063-.806.19-.229.126-.405.304-.529.531-.124.227-.187.493-.187.8h-.925c0-.471.108-.884.325-1.239s.513-.633.888-.831.797-.298,1.265-.298c.471,0,.888.1,1.251.298s.648.467.854.804.31.712.31,1.125c0,.296-.053.584-.158.864-.106.281-.289.594-.55.938-.26.344-.62.763-1.08,1.256l-1.803,1.93v.062h3.732v.862h-5.065Z"/>
            <path class="cls-25" d="m276.001,383.505c-.591,0-1.094-.161-1.51-.483-.415-.323-.732-.792-.952-1.408-.22-.615-.329-1.359-.329-2.232,0-.867.11-1.609.331-2.225s.54-1.086.956-1.411c.417-.326.919-.488,1.504-.488s1.087.162,1.504.488c.416.325.735.796.956,1.411s.331,1.357.331,2.225c0,.873-.109,1.617-.329,2.232-.22.616-.537,1.085-.952,1.408-.416.322-.919.483-1.51.483Zm0-.862c.586,0,1.04-.282,1.364-.847s.486-1.369.486-2.415c0-.695-.074-1.287-.222-1.775-.147-.489-.359-.861-.635-1.118-.276-.256-.607-.384-.994-.384-.58,0-1.033.285-1.36.856s-.49,1.378-.49,2.421c0,.695.073,1.286.22,1.772.146.485.357.855.633,1.109.276.253.608.38.998.38Z"/>
            <path class="cls-25" d="m283.16,375.367v8.029h-.973v-7.01h-.047l-1.96,1.302v-.988l2.007-1.333h.973Z"/>
            <path class="cls-25" d="m288.007,383.505c-.591,0-1.094-.161-1.51-.483-.415-.323-.732-.792-.952-1.408-.22-.615-.329-1.359-.329-2.232,0-.867.11-1.609.331-2.225s.54-1.086.956-1.411c.417-.326.919-.488,1.504-.488s1.087.162,1.504.488c.416.325.735.796.956,1.411s.331,1.357.331,2.225c0,.873-.109,1.617-.329,2.232-.22.616-.537,1.085-.952,1.408-.416.322-.919.483-1.51.483Zm0-.862c.586,0,1.04-.282,1.364-.847s.486-1.369.486-2.415c0-.695-.074-1.287-.222-1.775-.147-.489-.359-.861-.635-1.118-.276-.256-.607-.384-.994-.384-.58,0-1.033.285-1.36.856s-.49,1.378-.49,2.421c0,.695.073,1.286.22,1.772.146.485.357.855.633,1.109.276.253.608.38.998.38Z"/>
            <path class="cls-25" d="m295.198,374.991l-2.588,9.612h-.847l2.588-9.612h.847Z"/>
            <path class="cls-25" d="m299.014,375.367v8.029h-.973v-7.01h-.047l-1.96,1.302v-.988l2.007-1.333h.973Z"/>
            <path class="cls-25" d="m301.341,383.396v-.706l2.65-2.9c.311-.34.566-.636.769-.889.201-.252.351-.489.448-.713.099-.224.147-.458.147-.704,0-.282-.067-.526-.202-.733-.135-.206-.318-.365-.551-.478s-.494-.169-.784-.169c-.309,0-.577.063-.806.19-.229.126-.405.304-.529.531-.124.227-.187.493-.187.8h-.925c0-.471.108-.884.325-1.239s.513-.633.888-.831.797-.298,1.265-.298c.471,0,.888.1,1.251.298s.648.467.854.804.31.712.31,1.125c0,.296-.053.584-.158.864-.106.281-.289.594-.55.938-.26.344-.62.763-1.08,1.256l-1.803,1.93v.062h3.732v.862h-5.065Z"/>
          </g>
        </g>
      </g>
      <g class="cls-59">
        <g class="cls-32">
          <g>
            <path class="cls-25" d="m385.826,383.396v-.706l2.65-2.9c.311-.34.567-.636.769-.889.201-.252.351-.489.448-.713.099-.224.147-.458.147-.704,0-.282-.067-.526-.202-.733-.135-.206-.318-.365-.551-.478s-.494-.169-.784-.169c-.309,0-.577.063-.806.19-.229.126-.405.304-.529.531-.124.227-.186.493-.186.8h-.926c0-.471.108-.884.325-1.239.218-.355.514-.633.889-.831s.796-.298,1.264-.298c.471,0,.888.1,1.251.298s.648.467.854.804c.207.337.31.712.31,1.125,0,.296-.053.584-.158.864-.106.281-.289.594-.549.938-.261.344-.62.763-1.08,1.256l-1.804,1.93v.062h3.732v.862h-5.065Z"/>
            <path class="cls-25" d="m395.049,383.505c-.591,0-1.094-.161-1.51-.483-.415-.323-.733-.792-.952-1.408-.22-.615-.33-1.359-.33-2.232,0-.867.11-1.609.332-2.225.221-.615.539-1.086.956-1.411.417-.326.918-.488,1.504-.488s1.086.162,1.503.488c.417.325.736.796.957,1.411s.331,1.357.331,2.225c0,.873-.109,1.617-.329,2.232-.22.616-.537,1.085-.953,1.408-.415.322-.918.483-1.509.483Zm0-.862c.585,0,1.04-.282,1.364-.847s.486-1.369.486-2.415c0-.695-.074-1.287-.222-1.775-.147-.489-.359-.861-.636-1.118-.275-.256-.606-.384-.993-.384-.58,0-1.034.285-1.36.856-.327.571-.49,1.378-.49,2.421,0,.695.073,1.286.22,1.772.146.485.357.855.633,1.109.275.253.608.38.998.38Z"/>
            <path class="cls-25" d="m402.208,375.367v8.029h-.973v-7.01h-.047l-1.96,1.302v-.988l2.007-1.333h.973Z"/>
            <path class="cls-25" d="m404.246,381.749v-.8l3.528-5.583h.581v1.239h-.393l-2.666,4.218v.063h4.752v.862h-5.803Zm3.779,1.646v-8.029h.926v8.029h-.926Z"/>
            <path class="cls-25" d="m414.378,374.991l-2.588,9.612h-.847l2.588-9.612h.847Z"/>
            <path class="cls-25" d="m418.305,375.367v8.029h-.973v-7.01h-.047l-1.96,1.302v-.988l2.007-1.333h.973Z"/>
            <path class="cls-25" d="m420.532,383.396v-.706l2.65-2.9c.311-.34.567-.636.769-.889.201-.252.351-.489.448-.713.099-.224.147-.458.147-.704,0-.282-.067-.526-.202-.733-.135-.206-.318-.365-.551-.478s-.494-.169-.784-.169c-.309,0-.577.063-.806.19-.229.126-.405.304-.529.531-.124.227-.186.493-.186.8h-.926c0-.471.108-.884.325-1.239.218-.355.514-.633.889-.831s.796-.298,1.264-.298c.471,0,.888.1,1.251.298s.648.467.854.804c.207.337.31.712.31,1.125,0,.296-.053.584-.158.864-.106.281-.289.594-.549.938-.261.344-.62.763-1.08,1.256l-1.804,1.93v.062h3.732v.862h-5.065Z"/>
          </g>
        </g>
      </g>
      <g class="cls-11">
        <g class="cls-31">
          <g>
            <path class="cls-25" d="m505.108,383.396v-.706l2.65-2.9c.311-.34.567-.636.769-.889.201-.252.351-.489.448-.713.099-.224.147-.458.147-.704,0-.282-.067-.526-.202-.733-.135-.206-.318-.365-.551-.478s-.494-.169-.784-.169c-.309,0-.577.063-.806.19-.229.126-.405.304-.529.531-.124.227-.186.493-.186.8h-.926c0-.471.108-.884.325-1.239.218-.355.514-.633.889-.831s.796-.298,1.264-.298c.471,0,.888.1,1.251.298s.648.467.854.804c.207.337.31.712.31,1.125,0,.296-.053.584-.158.864-.106.281-.289.594-.549.938-.261.344-.62.763-1.08,1.256l-1.804,1.93v.062h3.732v.862h-5.065Z"/>
            <path class="cls-25" d="m514.33,383.505c-.591,0-1.094-.161-1.51-.483-.415-.323-.733-.792-.952-1.408-.22-.615-.33-1.359-.33-2.232,0-.867.11-1.609.332-2.225.221-.615.539-1.086.956-1.411.417-.326.918-.488,1.504-.488s1.086.162,1.503.488c.417.325.736.796.957,1.411s.331,1.357.331,2.225c0,.873-.109,1.617-.329,2.232-.22.616-.537,1.085-.953,1.408-.415.322-.918.483-1.509.483Zm0-.862c.585,0,1.04-.282,1.364-.847s.486-1.369.486-2.415c0-.695-.074-1.287-.222-1.775-.147-.489-.359-.861-.636-1.118-.275-.256-.606-.384-.993-.384-.58,0-1.034.285-1.36.856-.327.571-.49,1.378-.49,2.421,0,.695.073,1.286.22,1.772.146.485.357.855.633,1.109.275.253.608.38.998.38Z"/>
            <path class="cls-25" d="m521.49,375.367v8.029h-.973v-7.01h-.047l-1.96,1.302v-.988l2.007-1.333h.973Z"/>
            <path class="cls-25" d="m526.288,383.505c-.539,0-1.014-.096-1.426-.288-.411-.191-.732-.457-.962-.796-.23-.338-.344-.725-.341-1.158-.003-.34.063-.654.199-.942.136-.289.322-.531.559-.726.237-.194.501-.318.794-.37v-.048c-.384-.099-.689-.315-.917-.648s-.34-.713-.337-1.139c-.003-.408.101-.772.31-1.094.209-.322.497-.575.864-.761s.786-.278,1.257-.278c.465,0,.881.093,1.246.278.366.186.654.438.864.761.211.321.317.686.32,1.094-.003.426-.118.806-.348,1.139-.229.333-.531.55-.907.648v.048c.29.052.552.176.784.37s.418.437.557.726c.139.288.209.603.212.942-.003.434-.12.82-.352,1.158-.23.339-.551.604-.96.796-.409.192-.882.288-1.417.288Zm0-.862c.363,0,.677-.059.94-.176.264-.118.468-.284.611-.498.145-.215.218-.466.22-.753-.002-.304-.081-.571-.235-.804s-.363-.416-.629-.549c-.266-.134-.567-.2-.907-.2-.343,0-.647.066-.916.2-.268.133-.479.316-.631.549-.153.232-.229.5-.226.804-.003.287.067.538.21.753.143.214.347.38.613.498.267.117.583.176.949.176Zm0-3.811c.287,0,.543-.058.766-.173.224-.114.399-.275.527-.481.129-.207.193-.448.196-.726-.003-.271-.066-.509-.192-.712-.125-.202-.299-.359-.521-.47-.223-.111-.481-.167-.776-.167-.301,0-.563.056-.788.167-.226.11-.398.268-.521.47-.123.203-.184.44-.181.712-.003.277.06.519.187.726.127.206.303.367.527.481.225.115.483.173.776.173Z"/>
            <path class="cls-25" d="m533.409,374.991l-2.588,9.612h-.847l2.588-9.612h.847Z"/>
            <path class="cls-25" d="m537.337,375.367v8.029h-.973v-7.01h-.047l-1.96,1.302v-.988l2.007-1.333h.973Z"/>
            <path class="cls-25" d="m539.564,383.396v-.706l2.65-2.9c.311-.34.567-.636.769-.889.201-.252.351-.489.448-.713.099-.224.147-.458.147-.704,0-.282-.067-.526-.202-.733-.135-.206-.318-.365-.551-.478s-.494-.169-.784-.169c-.309,0-.577.063-.806.19-.229.126-.405.304-.529.531-.124.227-.186.493-.186.8h-.926c0-.471.108-.884.325-1.239.218-.355.514-.633.889-.831s.796-.298,1.264-.298c.471,0,.888.1,1.251.298s.648.467.854.804c.207.337.31.712.31,1.125,0,.296-.053.584-.158.864-.106.281-.289.594-.549.938-.261.344-.62.763-1.08,1.256l-1.804,1.93v.062h3.732v.862h-5.065Z"/>
          </g>
        </g>
      </g>
      <g class="cls-43">
        <g class="cls-22">
          <g>
            <path class="cls-25" d="m623.53,383.396v-.706l2.65-2.9c.311-.34.567-.636.769-.889.201-.252.351-.489.448-.713.099-.224.147-.458.147-.704,0-.282-.067-.526-.202-.733-.135-.206-.318-.365-.551-.478s-.494-.169-.784-.169c-.309,0-.577.063-.806.19-.229.126-.405.304-.529.531-.124.227-.186.493-.186.8h-.926c0-.471.108-.884.325-1.239.218-.355.514-.633.889-.831s.796-.298,1.264-.298c.471,0,.888.1,1.251.298s.648.467.854.804c.207.337.31.712.31,1.125,0,.296-.053.584-.158.864-.106.281-.289.594-.549.938-.261.344-.62.763-1.08,1.256l-1.804,1.93v.062h3.732v.862h-5.065Z"/>
            <path class="cls-25" d="m632.752,383.505c-.591,0-1.094-.161-1.51-.483-.415-.323-.733-.792-.952-1.408-.22-.615-.33-1.359-.33-2.232,0-.867.11-1.609.332-2.225.221-.615.539-1.086.956-1.411.417-.326.918-.488,1.504-.488s1.086.162,1.503.488c.417.325.736.796.957,1.411s.331,1.357.331,2.225c0,.873-.109,1.617-.329,2.232-.22.616-.537,1.085-.953,1.408-.415.322-.918.483-1.509.483Zm0-.862c.585,0,1.04-.282,1.364-.847s.486-1.369.486-2.415c0-.695-.074-1.287-.222-1.775-.147-.489-.359-.861-.636-1.118-.275-.256-.606-.384-.993-.384-.58,0-1.034.285-1.36.856-.327.571-.49,1.378-.49,2.421,0,.695.073,1.286.22,1.772.146.485.357.855.633,1.109.275.253.608.38.998.38Z"/>
            <path class="cls-25" d="m637.088,383.396v-.706l2.65-2.9c.311-.34.567-.636.769-.889.201-.252.351-.489.448-.713.099-.224.147-.458.147-.704,0-.282-.067-.526-.202-.733-.135-.206-.318-.365-.551-.478s-.494-.169-.784-.169c-.309,0-.577.063-.806.19-.229.126-.405.304-.529.531-.124.227-.186.493-.186.8h-.926c0-.471.108-.884.325-1.239.218-.355.514-.633.889-.831s.796-.298,1.264-.298c.471,0,.888.1,1.251.298s.648.467.854.804c.207.337.31.712.31,1.125,0,.296-.053.584-.158.864-.106.281-.289.594-.549.938-.261.344-.62.763-1.08,1.256l-1.804,1.93v.062h3.732v.862h-5.065Z"/>
            <path class="cls-25" d="m643.691,383.396v-.706l2.65-2.9c.311-.34.567-.636.769-.889.201-.252.351-.489.448-.713.099-.224.147-.458.147-.704,0-.282-.067-.526-.202-.733-.135-.206-.318-.365-.551-.478s-.494-.169-.784-.169c-.309,0-.577.063-.806.19-.229.126-.405.304-.529.531-.124.227-.186.493-.186.8h-.926c0-.471.108-.884.325-1.239.218-.355.514-.633.889-.831s.796-.298,1.264-.298c.471,0,.888.1,1.251.298s.648.467.854.804c.207.337.31.712.31,1.125,0,.296-.053.584-.158.864-.106.281-.289.594-.549.938-.261.344-.62.763-1.08,1.256l-1.804,1.93v.062h3.732v.862h-5.065Z"/>
            <path class="cls-25" d="m653.259,374.991l-2.588,9.612h-.847l2.588-9.612h.847Z"/>
            <path class="cls-25" d="m657.075,375.367v8.029h-.973v-7.01h-.047l-1.96,1.302v-.988l2.007-1.333h.973Z"/>
            <path class="cls-25" d="m659.402,383.396v-.706l2.65-2.9c.311-.34.567-.636.769-.889.201-.252.351-.489.448-.713.099-.224.147-.458.147-.704,0-.282-.067-.526-.202-.733-.135-.206-.318-.365-.551-.478s-.494-.169-.784-.169c-.309,0-.577.063-.806.19-.229.126-.405.304-.529.531-.124.227-.186.493-.186.8h-.926c0-.471.108-.884.325-1.239.218-.355.514-.633.889-.831s.796-.298,1.264-.298c.471,0,.888.1,1.251.298s.648.467.854.804c.207.337.31.712.31,1.125,0,.296-.053.584-.158.864-.106.281-.289.594-.549.938-.261.344-.62.763-1.08,1.256l-1.804,1.93v.062h3.732v.862h-5.065Z"/>
          </g>
        </g>
      </g>
      <g class="cls-7">
        <line class="cls-19" x1="398.94" y1="275.94" x2="418.14" y2="275.94"/>
      </g>
      <g class="cls-54">
        <g class="cls-47">
          <g>
            <path class="cls-25" d="m427.706,272.394l-.768.229c-.348-1.266-1.109-1.898-2.285-1.898-.875,0-1.566.377-2.074,1.131-.465.688-.697,1.596-.697,2.725,0,1.293.289,2.285.867,2.977.488.582,1.119.873,1.893.873.836,0,1.463-.346,1.881-1.037.328-.539.498-1.229.51-2.068h-2.473v-.674h3.217v4.318h-.562l-.1-1.488c-.246.562-.611.984-1.096,1.266-.418.246-.893.369-1.424.369-1.121,0-2.008-.447-2.66-1.342-.594-.809-.891-1.869-.891-3.182,0-1.496.395-2.666,1.184-3.51.648-.695,1.453-1.043,2.414-1.043.816,0,1.502.242,2.057.727.465.406.801.949,1.008,1.629Z"/>
            <path class="cls-25" d="m434.856,276.003h-4.354c0,.84.203,1.486.609,1.939.34.375.773.562,1.301.562.863,0,1.43-.43,1.699-1.289l.697.264c-.414,1.074-1.217,1.611-2.408,1.611-.84,0-1.502-.318-1.986-.955-.43-.562-.645-1.289-.645-2.18,0-1.016.275-1.818.826-2.408.465-.5,1.045-.75,1.74-.75.793,0,1.424.307,1.893.92.418.547.627,1.244.627,2.092v.193Zm-.744-.562c-.055-.695-.258-1.223-.609-1.582-.301-.309-.686-.463-1.154-.463-.539,0-.977.209-1.312.627-.297.363-.467.836-.51,1.418h3.586Z"/>
            <path class="cls-25" d="m439.033,272.798c.801,0,1.438.316,1.91.949.422.566.633,1.291.633,2.174,0,1.023-.271,1.828-.814,2.414-.461.504-1.041.756-1.74.756-.812,0-1.453-.32-1.922-.961-.414-.562-.621-1.287-.621-2.174,0-1.023.27-1.826.809-2.408.461-.5,1.043-.75,1.746-.75Zm0,.609c-.594,0-1.049.25-1.365.75-.281.441-.422,1.033-.422,1.775,0,.859.18,1.516.539,1.969.312.387.725.58,1.236.58.59,0,1.045-.252,1.365-.756.281-.445.422-1.043.422-1.793,0-.848-.18-1.496-.539-1.945-.312-.387-.725-.58-1.236-.58Z"/>
            <path class="cls-25" d="m452.053,270.197v8.748h-.756v-5.508l.012-2.59h-.135c-.117.398-.393,1.246-.826,2.543l-1.969,5.555h-1.02l-1.939-5.555c-.285-.812-.566-1.66-.844-2.543h-.129c-.004.168-.006.344-.006.527l.018,2.074v5.496h-.721v-8.748h1.33l1.898,5.484c.312.891.6,1.746.861,2.566h.123c.449-1.34.736-2.184.861-2.531l1.922-5.52h1.318Z"/>
            <path class="cls-25" d="m454.455,274.339c.359-1.027,1.146-1.541,2.361-1.541,1.418,0,2.127.664,2.127,1.992v2.115c0,.801.049,1.48.146,2.039h-.697c-.051-.23-.096-.582-.135-1.055-.527.801-1.25,1.201-2.168,1.201-.637,0-1.123-.184-1.459-.551-.285-.309-.428-.705-.428-1.189,0-1.086.676-1.742,2.027-1.969.527-.09,1.191-.154,1.992-.193v-.322c0-.57-.125-.967-.375-1.189-.219-.195-.566-.293-1.043-.293-.859,0-1.41.402-1.652,1.207l-.697-.252Zm3.768,1.4c-.602.012-1.213.076-1.834.193-.961.195-1.441.656-1.441,1.383,0,.391.125.691.375.902.223.191.521.287.896.287.805,0,1.473-.434,2.004-1.301v-1.465Z"/>
            <path class="cls-25" d="m465.377,272.945l-1.904,2.895,2.074,3.105h-.844l-1.33-2.074c-.043-.07-.102-.162-.176-.275-.066-.109-.119-.193-.158-.252-.082.125-.195.301-.34.527l-1.295,2.074h-.814l2.039-3.082-1.934-2.918h.844l1.189,1.898c.105.172.225.352.357.539l.346-.592,1.131-1.846h.814Z"/>
          </g>
        </g>
      </g>
      <g class="cls-34">
        <g class="cls-1">
          <g>
            <path class="cls-25" d="m477.47,269.13c-1.035.922-1.758,1.863-2.168,2.824-.336.789-.504,1.688-.504,2.695,0,1.152.223,2.168.668,3.047.422.828,1.09,1.652,2.004,2.473l-.252.287c-1.168-.93-1.992-1.891-2.473-2.883-.414-.855-.621-1.83-.621-2.924,0-1.242.275-2.342.826-3.299.488-.852,1.244-1.688,2.268-2.508l.252.287Z"/>
            <path class="cls-25" d="m478.865,277.363c1.25-1.004,2.182-2.248,2.795-3.732.207-.496.314-.93.322-1.301.316.098.586.219.809.363.062.043.094.092.094.146s-.027.109-.082.164c-.129.117-.25.309-.363.574-.664,1.547-1.576,2.881-2.736,4.002-.051.051-.105.076-.164.076-.043,0-.084-.014-.123-.041-.145-.113-.328-.197-.551-.252Zm6.158-4.635c.145-.105.287-.197.428-.275.047-.027.08-.041.1-.041.027,0,.062.021.105.064,1.148,1.152,2.141,2.576,2.977,4.271.023.051.035.088.035.111,0,.035-.023.07-.07.105-.164.121-.309.213-.434.275-.031.02-.057.029-.076.029-.031,0-.059-.029-.082-.088-.809-1.789-1.803-3.273-2.982-4.453Zm1.447-1.547l.363-.252c.016-.012.031-.018.047-.018.012,0,.027.006.047.018.461.312.912.797,1.354,1.453.016.016.023.031.023.047s-.01.035-.029.059l-.293.24c-.016.02-.033.029-.053.029-.027,0-.053-.018-.076-.053-.402-.641-.863-1.148-1.383-1.523Zm1.008-.744l.316-.24c.023-.02.043-.029.059-.029s.031.006.047.018c.543.395.994.854,1.354,1.377.016.023.023.045.023.064,0,.023-.016.047-.047.07l-.275.24c-.016.016-.033.023-.053.023s-.041-.016-.064-.047c-.383-.598-.836-1.09-1.359-1.477Z"/>
            <path class="cls-25" d="m492.616,273.607c.297-.176.449-.264.457-.264.023-.012.045-.018.064-.018.031,0,.068.025.111.076.363.465.684,1.008.961,1.629.016.043.023.072.023.088,0,.027-.023.055-.07.082-.129.086-.262.154-.398.205-.02.008-.037.012-.053.012-.039,0-.072-.029-.1-.088-.305-.719-.637-1.293-.996-1.723Zm6.059-.615c.316.082.576.186.779.311.051.031.076.074.076.129,0,.047-.02.088-.059.123-.125.109-.238.287-.34.533-.527,1.281-1.115,2.324-1.764,3.129-.762.941-1.582,1.697-2.461,2.268-.043.027-.082.041-.117.041-.027,0-.053-.01-.076-.029-.125-.117-.297-.197-.516-.24.605-.379,1.117-.76,1.535-1.143.344-.316.721-.723,1.131-1.219.684-.844,1.232-1.848,1.646-3.012.086-.258.141-.555.164-.891Zm-3.732.035c.258-.145.41-.229.457-.252.023-.008.043-.012.059-.012.043,0,.08.023.111.07.324.441.615.99.873,1.646.008.023.012.041.012.053,0,.035-.023.064-.07.088-.191.109-.328.178-.41.205-.02.008-.037.012-.053.012-.027,0-.053-.027-.076-.082-.273-.703-.574-1.279-.902-1.729Z"/>
            <path class="cls-25" d="m507.511,271.779l2.93-.059c.266-.008.449-.045.551-.111.031-.016.064-.023.1-.023.059,0,.121.02.188.059.098.066.219.172.363.316.059.066.088.129.088.188,0,.047-.018.088-.053.123-.137.121-.229.244-.275.369-.746,1.586-1.52,2.838-2.32,3.756-1.129,1.309-2.381,2.354-3.756,3.135-.027.02-.055.029-.082.029-.035,0-.07-.018-.105-.053-.148-.148-.334-.248-.557-.299.898-.484,1.678-1.002,2.338-1.553.547-.457,1.088-1,1.623-1.629.852-.988,1.607-2.236,2.268-3.744l-3.633.088c-.734,1-1.535,1.867-2.402,2.602-.051.043-.098.064-.141.064-.035,0-.072-.014-.111-.041-.164-.109-.34-.182-.527-.217,1.293-1.035,2.309-2.174,3.047-3.416.352-.574.557-1.066.615-1.477.336.105.588.229.756.369.055.039.082.082.082.129s-.027.092-.082.135c-.148.109-.277.258-.387.445-.199.336-.371.607-.516.814Z"/>
            <path class="cls-25" d="m520.554,273.929c-.055,1.375-.291,2.451-.709,3.229-.512.941-1.217,1.682-2.115,2.221-.078.047-.143.07-.193.07-.035,0-.066-.012-.094-.035-.168-.141-.355-.244-.562-.311.633-.32,1.135-.664,1.506-1.031.316-.312.594-.697.832-1.154.402-.773.611-1.77.627-2.988h-2.496c-.535,0-1.107.02-1.717.059-.074,0-.121-.012-.141-.035-.016-.016-.029-.057-.041-.123-.004-.027-.02-.205-.047-.533.629.031,1.277.047,1.945.047h5.121c.742,0,1.449-.016,2.121-.047.09,0,.135.057.135.17v.381c0,.078-.049.117-.146.117-.727-.023-1.426-.035-2.098-.035h-1.928Zm-3.686-3.281c.586.031,1.189.047,1.811.047h2.402c.848,0,1.488-.014,1.922-.041h.035c.062,0,.094.049.094.146v.346c0,.105-.049.158-.146.158-.43-.016-1.064-.023-1.904-.023h-2.402c-.719,0-1.262.012-1.629.035-.012.004-.025.006-.041.006-.062,0-.098-.045-.105-.135l-.035-.539Z"/>
            <path class="cls-25" d="m532.853,274.896c1.355.996,2.51,2.01,3.463,3.041.051.047.076.086.076.117,0,.023-.02.059-.059.105-.059.066-.168.18-.328.34-.027.027-.051.041-.07.041-.027,0-.062-.021-.105-.064-.984-1.125-2.109-2.154-3.375-3.088-1.398,1.465-2.842,2.598-4.33,3.398-.051.027-.092.041-.123.041-.039,0-.078-.021-.117-.064-.125-.141-.293-.258-.504-.352,1.691-.863,3.164-1.959,4.418-3.287.879-.949,1.643-2.045,2.291-3.287h-3.744c-.699,0-1.26.021-1.682.064h-.035c-.062,0-.098-.033-.105-.1-.035-.191-.053-.387-.053-.586.387.023.988.035,1.805.035h3.527c.301,0,.504-.033.609-.1.023-.012.051-.018.082-.018.062,0,.115.02.158.059.121.086.244.201.369.346.035.039.053.084.053.135,0,.07-.029.121-.088.152-.09.051-.193.174-.311.369-.559,1-1.166,1.9-1.822,2.701Z"/>
            <path class="cls-25" d="m543.376,273.378c1.367.375,2.674.93,3.92,1.664.055.031.082.064.082.1,0,.012-.002.027-.006.047-.066.168-.139.312-.217.434-.035.047-.07.07-.105.07-.027,0-.061-.012-.1-.035-1.102-.711-2.293-1.252-3.574-1.623v3.035c0,.066.012.828.035,2.285,0,.098-.045.146-.135.146-.07.004-.146.006-.229.006-.086,0-.166-.002-.24-.006-.098,0-.146-.053-.146-.158.035-.961.053-1.713.053-2.256v-5.701c0-.672-.045-1.209-.135-1.611.355.027.631.072.826.135.082.023.123.07.123.141,0,.039-.016.096-.047.17-.07.156-.105.523-.105,1.102v2.057Z"/>
            <path class="cls-25" d="m550.624,269.13l.252-.287c1.168.93,1.992,1.891,2.473,2.883.414.855.621,1.83.621,2.924,0,1.246-.273,2.346-.82,3.299-.488.855-1.246,1.691-2.273,2.508l-.252-.287c1.039-.93,1.762-1.873,2.168-2.83.336-.785.504-1.682.504-2.689,0-1.152-.223-2.17-.668-3.053-.422-.832-1.09-1.654-2.004-2.467Z"/>
          </g>
        </g>
      </g>
      <g class="cls-12">
        <line class="cls-15" x1="399" y1="302.04" x2="418.2" y2="302.04"/>
      </g>
      <g class="cls-6">
        <g class="cls-42">
          <g>
            <path class="cls-25" d="m426.745,298.191l-.791.252c-.332-1.07-1.004-1.605-2.016-1.605-.629,0-1.115.16-1.459.48-.301.277-.451.637-.451,1.078,0,.523.164.92.492,1.189.285.227.762.422,1.43.586l.352.1c1.082.273,1.812.635,2.191,1.084.297.348.445.83.445,1.447,0,.789-.293,1.404-.879,1.846-.523.395-1.215.592-2.074.592-.828,0-1.516-.209-2.062-.627-.48-.371-.824-.883-1.031-1.535l.791-.299c.316,1.199,1.08,1.799,2.291,1.799.758,0,1.322-.18,1.693-.539.297-.293.445-.682.445-1.166,0-.539-.158-.943-.475-1.213-.305-.258-.842-.484-1.611-.68l-.305-.088c-.988-.254-1.668-.596-2.039-1.025-.305-.355-.457-.834-.457-1.436,0-.676.26-1.229.779-1.658.492-.406,1.133-.609,1.922-.609,1.402,0,2.342.676,2.818,2.027Z"/>
            <path class="cls-25" d="m435.301,301.027c-.074.609-.213,1.172-.416,1.688-.184.473-.4.846-.65,1.119.297.324.576.537.838.639.219.086.514.129.885.129l-.188.598h-.17c-.438,0-.799-.076-1.084-.229-.238-.125-.492-.34-.762-.645-.66.602-1.473.902-2.438.902-.855,0-1.541-.266-2.057-.797-.445-.461-.668-1.027-.668-1.699,0-.656.18-1.205.539-1.646.309-.375.777-.707,1.406-.996-.449-.695-.674-1.332-.674-1.91,0-.562.207-1.025.621-1.389.355-.312.785-.469,1.289-.469.59,0,1.055.178,1.395.533.293.312.439.711.439,1.195,0,.551-.189,1.006-.568,1.365-.348.324-.887.609-1.617.855.77,1.184,1.574,2.248,2.414,3.193.402-.574.662-1.443.779-2.607l.686.17Zm-4.488-.527c-.594.301-1.002.637-1.225,1.008-.191.316-.287.717-.287,1.201,0,.59.223,1.072.668,1.447.391.332.863.498,1.418.498.809,0,1.473-.238,1.992-.715-.941-1.059-1.797-2.205-2.566-3.439Zm.346-.662c.711-.262,1.191-.543,1.441-.844.207-.254.311-.584.311-.99,0-.348-.117-.627-.352-.838-.211-.188-.473-.281-.785-.281-.371,0-.676.135-.914.404-.207.234-.311.52-.311.855,0,.297.051.578.152.844.09.227.242.51.457.85Z"/>
            <path class="cls-25" d="m437.75,296.322h2.818c1.051,0,1.828.236,2.332.709.43.402.645.963.645,1.682,0,.812-.295,1.436-.885,1.869-.531.387-1.252.58-2.162.58h-1.957v3.908h-.791v-8.748Zm.791.662v3.527h1.91c1.512,0,2.268-.596,2.268-1.787,0-1.16-.732-1.74-2.197-1.74h-1.98Z"/>
            <path class="cls-25" d="m449.767,296.468v.662h-3.545l-.105,2.279c-.008.172-.031.508-.07,1.008.18-.293.432-.521.756-.686.289-.145.598-.217.926-.217.723,0,1.307.281,1.752.844.398.508.598,1.15.598,1.928,0,.969-.281,1.725-.844,2.268-.461.449-1.027.674-1.699.674-1.18,0-1.98-.533-2.402-1.6l.732-.311c.293.84.85,1.26,1.67,1.26.57,0,1.014-.227,1.33-.68.281-.402.422-.928.422-1.576,0-.727-.168-1.281-.504-1.664-.293-.328-.682-.492-1.166-.492-.391,0-.734.119-1.031.357-.258.211-.449.492-.574.844l-.627-.1.205-4.799h4.178Z"/>
            <path class="cls-25" d="m454.379,296.322c1.703,0,2.555,1.469,2.555,4.406,0,3-.861,4.5-2.584,4.5-1.703,0-2.555-1.492-2.555-4.477,0-2.953.861-4.43,2.584-4.43Zm0,.662c-.648,0-1.111.322-1.389.967-.262.602-.393,1.527-.393,2.777,0,1.441.164,2.465.492,3.07.277.512.697.768,1.26.768.648,0,1.113-.338,1.395-1.014.258-.617.387-1.555.387-2.812,0-1.426-.166-2.432-.498-3.018-.277-.492-.695-.738-1.254-.738Z"/>
            <path class="cls-25" d="m461.089,296.322c1.703,0,2.555,1.469,2.555,4.406,0,3-.861,4.5-2.584,4.5-1.703,0-2.555-1.492-2.555-4.477,0-2.953.861-4.43,2.584-4.43Zm0,.662c-.648,0-1.111.322-1.389.967-.262.602-.393,1.527-.393,2.777,0,1.441.164,2.465.492,3.07.277.512.697.768,1.26.768.648,0,1.113-.338,1.395-1.014.258-.617.387-1.555.387-2.812,0-1.426-.166-2.432-.498-3.018-.277-.492-.695-.738-1.254-.738Z"/>
          </g>
        </g>
      </g>
      <g class="cls-57">
        <g class="cls-41">
          <g>
            <path class="cls-25" d="m467.64,301.495v1.799l.012,1.617c0,.438-.092.73-.275.879-.176.129-.504.193-.984.193h-.252c-.102,0-.166-.012-.193-.035-.023-.023-.047-.076-.07-.158-.039-.141-.107-.273-.205-.398.289.023.605.035.949.035.199,0,.332-.049.398-.146.062-.09.094-.24.094-.451v-3.105l-.938.357c-.207.07-.355.15-.445.24-.055.055-.105.082-.152.082s-.088-.031-.123-.094c-.066-.148-.137-.328-.211-.539.234-.043.574-.139,1.02-.287.203-.07.486-.176.85-.316v-2.748h-.469l-1.201.023c-.055,0-.082-.027-.082-.082v-.381c0-.059.027-.088.082-.088l1.201.023h.469v-1.09c0-.66-.027-1.121-.082-1.383.195.012.398.033.609.064.09.012.135.043.135.094,0,.039-.025.115-.076.229-.039.098-.059.426-.059.984v1.102h.264l1.201-.023c.055,0,.082.029.082.088v.381c0,.055-.027.082-.082.082l-1.201-.023h-.264v2.531c.582-.242,1.102-.494,1.559-.756-.012.102-.018.189-.018.264,0,.043.002.084.006.123.004.051.006.084.006.1,0,.062-.057.125-.17.188-.406.203-.867.412-1.383.627Zm2.812-4.143c1.301-.254,2.373-.545,3.217-.873.328-.129.568-.27.721-.422.137.109.266.229.387.357.047.051.07.104.07.158,0,.059-.076.098-.229.117-.074.016-.238.076-.492.182-.883.352-2.107.672-3.674.961v.779c0,.297.156.486.469.568.32.062.912.094,1.775.094,1.102,0,1.766-.072,1.992-.217.152-.098.254-.246.305-.445.035-.148.062-.404.082-.768.102.102.221.178.357.229.113.043.17.098.17.164,0,.02-.004.057-.012.111-.043.355-.107.617-.193.785-.07.141-.178.264-.322.369-.293.191-1.094.287-2.402.287-1.066,0-1.754-.041-2.062-.123-.473-.094-.709-.385-.709-.873v-2.039c0-.566-.02-.979-.059-1.236.211.012.41.031.598.059.098.012.146.043.146.094,0,.031-.023.104-.07.217-.043.102-.064.387-.064.855v.609Zm.141,7.898v.756c0,.055-.027.082-.082.082h-.398c-.055,0-.082-.027-.082-.082l.023-2.326v-1.201l-.023-1.588c0-.055.027-.082.082-.082l1.43.023h1.887l1.418-.023c.055,0,.082.027.082.082l-.023,1.43v1.324l.023,2.303c0,.047-.027.07-.082.07h-.398c-.055,0-.082-.023-.082-.07v-.697h-3.773Zm0-2.484h3.773v-1.441h-3.773v1.441Zm0,.48v1.523h3.773v-1.523h-3.773Z"/>
            <path class="cls-25" d="m480.624,298.408c.477.535,1.033.98,1.67,1.336-.109.066-.201.154-.275.264-.051.066-.088.1-.111.1-.027,0-.078-.029-.152-.088-.574-.449-1.051-.941-1.43-1.477.004.445.018.898.041,1.359.02.359.029.551.029.574,0,.055-.027.082-.082.082h-.41c-.055,0-.082-.027-.082-.082,0-.043.006-.156.018-.34.031-.555.049-1.074.053-1.559-.5.828-1.26,1.6-2.279,2.314-.074.059-.125.088-.152.088s-.068-.033-.123-.1c-.082-.105-.17-.182-.264-.229.926-.574,1.629-1.162,2.109-1.764.117-.125.238-.285.363-.48h-.686l-1.5.023c-.055,0-.082-.027-.082-.082v-.322c0-.066.027-.1.082-.1l1.5.023h1.008v-1.605c0-.375-.027-.676-.082-.902.203.012.395.033.574.064.078.012.117.047.117.105,0,.027-.02.088-.059.182-.039.078-.059.266-.059.562v1.594h.732l1.5-.023c.055,0,.082.033.082.1v.322c0,.055-.027.082-.082.082l-1.5-.023h-.469Zm-.949,3.434h1.6l1.523-.023c.055,0,.082.027.082.082v.328c0,.055-.027.082-.082.082-.008,0-.053-.002-.135-.006-.27-.008-.584-.014-.943-.018-.293.816-.625,1.443-.996,1.881.426.242.781.467,1.066.674.031.02.047.039.047.059s-.023.057-.07.111l-.123.152c-.059.09-.104.135-.135.135-.016,0-.039-.012-.07-.035-.41-.316-.762-.561-1.055-.732-.582.57-1.461,1.059-2.637,1.465-.07.023-.117.035-.141.035-.047,0-.102-.049-.164-.146-.062-.102-.146-.186-.252-.252,1.172-.324,2.088-.779,2.748-1.365-.578-.305-1.018-.514-1.318-.627-.145.215-.24.355-.287.422-.055.07-.105.105-.152.105-.027,0-.064-.008-.111-.023l-.193-.07c-.078-.027-.117-.057-.117-.088,0-.02.012-.043.035-.07.168-.18.348-.414.539-.703.199-.297.383-.605.551-.926h-.035l-1.523.023c-.055,0-.082-.027-.082-.082v-.328c0-.055.027-.082.082-.082l1.523.023h.275l.252-.504c.098-.219.162-.432.193-.639.203.055.375.111.516.17.07.027.105.068.105.123,0,.043-.031.09-.094.141-.051.043-.143.188-.275.434-.027.047-.076.139-.146.275Zm-1.459-5.877c.297.359.547.775.75,1.248.008.016.012.029.012.041,0,.027-.035.061-.105.1l-.152.082c-.066.039-.111.059-.135.059-.02,0-.039-.023-.059-.07-.16-.414-.393-.816-.697-1.207-.02-.031-.029-.055-.029-.07,0-.027.037-.061.111-.1l.158-.082c.043-.027.072-.041.088-.041.02,0,.039.014.059.041Zm1.219,6.322c-.043.09-.242.426-.598,1.008.539.195,1.02.408,1.441.639.379-.422.682-.971.908-1.646h-1.752Zm1.611-4.84c.293-.352.541-.723.744-1.113.078-.156.129-.301.152-.434.199.074.35.143.451.205.062.039.094.08.094.123,0,.035-.023.07-.07.105-.074.055-.139.123-.193.205-.199.34-.42.66-.662.961-.059.074-.104.111-.135.111-.027,0-.078-.021-.152-.064-.082-.055-.158-.088-.229-.1Zm3.129.492h2.268l1.289-.023c.055,0,.082.027.082.082v.363c0,.055-.027.082-.082.082l-1.061-.023c-.156,1.906-.576,3.426-1.26,4.559.52.75,1.4,1.594,2.643,2.531-.102.07-.197.184-.287.34-.059.082-.102.123-.129.123-.023,0-.068-.025-.135-.076-1.031-.852-1.828-1.672-2.391-2.461-.738,1.062-1.75,1.934-3.035,2.613-.074.039-.125.059-.152.059-.031,0-.08-.043-.146-.129-.078-.113-.178-.201-.299-.264,1.488-.711,2.6-1.631,3.334-2.76-.598-1.055-1.021-2.207-1.271-3.457-.254.512-.525.977-.814,1.395-.047.07-.084.105-.111.105-.02,0-.066-.031-.141-.094-.086-.074-.188-.131-.305-.17.844-1.074,1.48-2.479,1.91-4.213.105-.375.166-.742.182-1.102.234.055.408.107.521.158.098.035.146.082.146.141,0,.008-.039.072-.117.193-.051.059-.115.246-.193.562-.137.496-.285.984-.445,1.465Zm-.164.48l-.158.381c.285,1.438.697,2.658,1.236,3.662.559-.996.91-2.344,1.055-4.043h-2.133Z"/>
            <path class="cls-25" d="m499.908,295.255c-1.035.922-1.758,1.863-2.168,2.824-.336.789-.504,1.688-.504,2.695,0,1.152.223,2.168.668,3.047.422.828,1.09,1.652,2.004,2.473l-.252.287c-1.168-.93-1.992-1.891-2.473-2.883-.414-.855-.621-1.83-.621-2.924,0-1.242.275-2.342.826-3.299.488-.852,1.244-1.688,2.268-2.508l.252.287Z"/>
            <path class="cls-25" d="m504.712,298.027l1.318-.023c.047,0,.07.027.07.082l-.023,2.221v2.145l.023,3.217c0,.055-.023.082-.07.082h-.34c-.055,0-.082-.027-.082-.082v-.469h-3.357v.744c0,.055-.023.082-.07.082h-.352c-.055,0-.082-.027-.082-.082l.023-3.334v-2.004l-.023-2.52c0-.055.027-.082.082-.082l1.283.023v-1.547h-.275l-1.477.023c-.055,0-.082-.029-.082-.088v-.357c0-.055.027-.082.082-.082l1.477.023h2.15l1.471-.023c.059,0,.088.027.088.082v.357c0,.059-.029.088-.088.088l-1.471-.023h-.275v1.547Zm-1.166.428c0,.82-.027,1.408-.082,1.764-.082.625-.295,1.189-.639,1.693-.043.062-.078.094-.105.094-.031,0-.072-.031-.123-.094-.066-.09-.139-.154-.217-.193.371-.441.592-.984.662-1.629.047-.418.07-.963.07-1.635h-.861v4.453h3.357v-1.477c-.113.008-.277.012-.492.012-.285,0-.488-.061-.609-.182-.152-.141-.229-.42-.229-.838v-1.969h-.732Zm-1.295,6.264h3.357v-1.342h-3.357v1.342Zm2.027-6.691v-1.547h-.732v1.547h.732Zm.434.428v1.816c0,.316.027.512.082.586.062.078.199.117.41.117l.404-.012v-2.508h-.896Zm6.012,1.945h-2.93v3.902c0,.434.035.686.105.756.141.129.598.193,1.371.193.902,0,1.451-.092,1.646-.275.203-.199.334-.705.393-1.518.086.074.197.146.334.217.121.055.182.109.182.164,0,.016-.004.053-.012.111-.055.453-.131.793-.229,1.02-.07.16-.174.303-.311.428-.27.246-.949.369-2.039.369-.965,0-1.541-.088-1.729-.264-.109-.098-.182-.221-.217-.369-.031-.133-.047-.342-.047-.627v-3.258l-.023-1.307c0-.055.027-.082.082-.082l1.236.023h2.186v-3.381h-2.127l-1.225.023c-.055,0-.082-.023-.082-.07v-.398c0-.055.027-.082.082-.082l1.225.023h1.371l1.248-.023c.055,0,.082.027.082.082l-.023,1.271v2.385l.023,1.271c0,.059-.027.088-.082.088h-.41c-.055,0-.082-.029-.082-.088v-.586Z"/>
            <path class="cls-25" d="m518.183,299.872v-3c0-.629-.029-1.068-.088-1.318.281.012.502.035.662.07.09.012.135.043.135.094,0,.043-.025.119-.076.229-.039.102-.059.41-.059.926v3h1.969l1.723-.023c.059,0,.088.031.088.094l-.023,1.441v2.93l.023,1.764c0,.059-.029.088-.088.088h-.404c-.055,0-.082-.029-.082-.088v-.574h-6.135l-1.717.023c-.047,0-.07-.027-.07-.082v-.41c0-.055.023-.082.07-.082l1.717.023h6.135v-2.08h-5.508l-1.693.023c-.055,0-.082-.027-.082-.082v-.387c0-.055.027-.082.082-.082l1.693.023h5.508v-1.992h-5.977l-1.717.023c-.055,0-.082-.027-.082-.082v-.398c0-.062.027-.094.082-.094l1.717.023h2.197Zm-3.451-3.24c-.016-.023-.023-.041-.023-.053,0-.027.041-.064.123-.111l.193-.1c.066-.035.107-.053.123-.053s.033.014.053.041c.613.82,1.07,1.596,1.371,2.326.016.031.023.055.023.07,0,.023-.045.061-.135.111l-.188.111c-.074.039-.125.059-.152.059-.023,0-.041-.02-.053-.059-.355-.844-.801-1.625-1.336-2.344Zm5.549,2.291c.57-.734,1.029-1.475,1.377-2.221.07-.156.119-.307.146-.451.203.078.395.166.574.264.051.023.076.059.076.105,0,.039-.037.084-.111.135-.055.043-.111.115-.17.217-.359.703-.787,1.389-1.283,2.057-.059.074-.104.111-.135.111s-.078-.023-.141-.07c-.09-.07-.201-.119-.334-.146Z"/>
            <path class="cls-25" d="m530.634,298.203h1.822l1.717-.023c.055,0,.082.027.082.082l-.023,1.793v2.484l1.488-.023c.047,0,.07.027.07.082v.375c0,.055-.023.082-.07.082l-1.488-.023v.117l.012,1.869c0,.32-.092.557-.275.709-.164.145-.688.217-1.57.217-.094,0-.15-.01-.17-.029-.016-.016-.035-.07-.059-.164-.051-.172-.119-.318-.205-.439.395.031.754.047,1.078.047.254,0,.426-.037.516-.111.082-.066.123-.182.123-.346v-1.869h-6.445v1.248l.023,1.705c0,.055-.027.082-.082.082h-.434c-.055,0-.082-.027-.082-.082l.023-1.717v-1.236l-1.43.023c-.055,0-.082-.027-.082-.082v-.375c0-.055.027-.082.082-.082l1.43.023v-2.531l-.023-1.746c0-.055.027-.082.082-.082l1.717.023h1.635v-1.547h-3.029l-1.594.023c-.055,0-.082-.027-.082-.082v-.398c0-.055.027-.082.082-.082l1.594.023h6.891l1.605-.023c.059,0,.088.027.088.082v.398c0,.055-.029.082-.088.082l-1.605-.023h-3.322v1.547Zm-3.398,2.139h2.859v-1.623h-2.859v1.623Zm0,2.197h2.859v-1.717h-2.859v1.717Zm3.398-3.82v1.623h3.047v-1.623h-3.047Zm3.047,2.104h-3.047v1.717h3.047v-1.717Z"/>
            <path class="cls-25" d="m538.919,298.519h-.48l-1.189.023c-.055,0-.082-.029-.082-.088v-.381c0-.055.027-.082.082-.082l1.189.023h.48v-1.096c0-.648-.027-1.107-.082-1.377.234.012.441.035.621.07.09.012.135.045.135.1,0,.039-.025.113-.076.223-.039.109-.059.434-.059.973v1.107h.24l1.189-.023c.055,0,.082.027.082.082v.381c0,.059-.027.088-.082.088l-1.189-.023h-.24v2.408c.504-.258.924-.496,1.26-.715-.012.059-.018.133-.018.223,0,.047.002.104.006.17.008.062.012.105.012.129,0,.055-.049.107-.146.158-.383.219-.754.416-1.113.592v1.916l.012,1.623c0,.438-.096.725-.287.861-.188.137-.531.205-1.031.205h-.217c-.098,0-.16-.014-.188-.041-.02-.02-.041-.074-.064-.164-.043-.156-.107-.287-.193-.393.277.031.586.047.926.047.199,0,.334-.053.404-.158.066-.094.1-.25.1-.469v-3.164c-.109.047-.273.119-.492.217-.195.09-.344.156-.445.199-.234.109-.387.199-.457.27-.055.055-.098.082-.129.082-.051,0-.092-.027-.123-.082-.055-.125-.125-.311-.211-.557.305-.07.656-.186,1.055-.346.488-.211.756-.328.803-.352v-2.66Zm5.197,5.625c-.996.812-2.219,1.461-3.668,1.945-.086.027-.141.041-.164.041-.047,0-.094-.053-.141-.158-.055-.129-.143-.227-.264-.293,1.488-.41,2.766-1.045,3.832-1.904-.484-.496-.885-1.004-1.201-1.523-.199-.336-.383-.717-.551-1.143-.227.004-.43.01-.609.018-.117.004-.18.006-.188.006-.055,0-.082-.027-.082-.082v-.363c0-.055.027-.082.082-.082l1.553.023h3.105c.117,0,.209-.02.275-.059.031-.016.059-.023.082-.023.078,0,.174.068.287.205.113.109.17.201.17.275,0,.047-.031.086-.094.117-.09.051-.191.184-.305.398-.445.855-1.02,1.607-1.723,2.256.965.77,2.18,1.361,3.645,1.775-.098.09-.182.201-.252.334-.055.105-.105.158-.152.158-.023,0-.068-.01-.135-.029-1.402-.473-2.57-1.104-3.504-1.893Zm-3.521-4.547c.66-.383,1.107-.818,1.342-1.307.215-.453.322-1.082.322-1.887l-.023-.469c0-.055.027-.082.082-.082l1.049.023h.984l1.066-.023c.055,0,.082.027.082.082l-.023,1.031v1.289c0,.297.035.477.105.539.105.086.35.129.732.129.398,0,.664-.076.797-.229.113-.152.176-.488.188-1.008.102.09.215.162.34.217.109.047.164.102.164.164,0,.02-.004.053-.012.1-.059.48-.182.809-.369.984-.184.184-.568.275-1.154.275-.492,0-.82-.043-.984-.129-.238-.145-.357-.412-.357-.803v-2.104h-2.109c-.016.965-.17,1.723-.463,2.273-.238.445-.617.84-1.137,1.184-.078.051-.131.076-.158.076-.031,0-.082-.037-.152-.111-.082-.094-.186-.166-.311-.217Zm1.904,1.512c.352.871.887,1.646,1.605,2.326.777-.703,1.354-1.479,1.729-2.326h-3.334Z"/>
            <path class="cls-25" d="m549.267,305.744c1.215-.188,2.166-.469,2.854-.844.16-.094.289-.193.387-.299.184.082.344.162.48.24.062.043.094.088.094.135,0,.051-.035.082-.105.094-.141.031-.254.076-.34.135-.711.418-1.662.742-2.854.973-.066.012-.109.018-.129.018-.047,0-.096-.051-.146-.152-.066-.117-.146-.217-.24-.299Zm3.275-7.693c-.004.059-.006.113-.006.164,0,.047.002.104.006.17.008.055.012.094.012.117,0,.051-.055.107-.164.17-.59.32-1.275.625-2.057.914-.258.098-.406.162-.445.193-.066.055-.113.082-.141.082-.051,0-.092-.027-.123-.082-.078-.148-.152-.324-.223-.527.285-.035.572-.1.861-.193.789-.258,1.549-.594,2.279-1.008Zm-2.637-1.852c-.043-.016-.064-.033-.064-.053s.025-.061.076-.123l.105-.135c.047-.062.09-.094.129-.094.012,0,.029.004.053.012.582.199,1.197.523,1.846.973.035.023.053.047.053.07s-.021.064-.064.123l-.129.152c-.062.082-.107.123-.135.123-.016,0-.039-.012-.07-.035-.531-.426-1.131-.764-1.799-1.014Zm2.854,3.797h3.422l1.682-.023c.055,0,.082.027.082.082l-.023,1.201v1.904l.023,1.201c0,.055-.027.082-.082.082l-1.682-.023h-3.422l-1.67.023c-.055,0-.082-.027-.082-.082l.023-1.201v-1.904l-.023-1.201c0-.055.027-.082.082-.082l1.67.023Zm-1.213,1.318h5.859v-.885h-5.859v.885Zm0,.41v.896h5.859v-.896h-5.859Zm0,1.307v.955h5.859v-.955h-5.859Zm4.318-6.035c.156.629.561,1.174,1.213,1.635.68.457,1.588.793,2.725,1.008-.09.09-.166.201-.229.334-.043.113-.088.17-.135.17-.023,0-.062-.008-.117-.023-1.035-.285-1.818-.617-2.35-.996-.652-.445-1.102-1.006-1.348-1.682-.363,1.184-1.379,1.955-3.047,2.314-.074.016-.121.023-.141.023-.059,0-.115-.051-.17-.152-.055-.098-.139-.182-.252-.252,1.129-.219,1.949-.551,2.461-.996.445-.383.721-.844.826-1.383h-1.488c-.266.316-.561.598-.885.844-.066.051-.111.076-.135.076-.031,0-.088-.035-.17-.105-.105-.078-.205-.125-.299-.141.711-.492,1.248-1.066,1.611-1.723.121-.227.197-.43.229-.609.195.043.359.092.492.146.078.031.117.066.117.105s-.035.088-.105.146c-.031.023-.092.107-.182.252-.184.309-.301.5-.352.574h3.973c.156,0,.266-.012.328-.035.062-.031.102-.047.117-.047.062,0,.146.049.252.146.16.137.24.232.24.287,0,.039-.031.078-.094.117-.062.035-.139.119-.229.252-.207.312-.439.596-.697.85-.078.078-.133.117-.164.117s-.088-.021-.17-.064c-.094-.055-.203-.088-.328-.1.355-.285.672-.648.949-1.09h-2.449Zm3.662,8.707c-.113.102-.197.207-.252.316-.051.102-.104.152-.158.152-.023,0-.07-.006-.141-.018-1.23-.242-2.258-.645-3.082-1.207-.031-.02-.047-.039-.047-.059,0-.027.027-.059.082-.094l.229-.135c.051-.031.09-.047.117-.047.02,0,.043.008.07.023.852.523,1.912.879,3.182,1.066Z"/>
            <path class="cls-25" d="m561.062,295.255l.252-.287c1.168.93,1.992,1.891,2.473,2.883.414.855.621,1.83.621,2.924,0,1.246-.273,2.346-.82,3.299-.488.855-1.246,1.691-2.273,2.508l-.252-.287c1.039-.93,1.762-1.873,2.168-2.83.336-.785.504-1.682.504-2.689,0-1.152-.223-2.17-.668-3.053-.422-.832-1.09-1.654-2.004-2.467Z"/>
          </g>
        </g>
      </g>
    </g>
  </g>
</svg>